<svg xmlns="http://www.w3.org/2000/svg" width="33" height="33" viewBox="0 0 33 33">
  <g id="footer_facebook_icon" transform="translate(-609 -4980.809)">
    <circle id="Ellipse_12" data-name="Ellipse 12" cx="16.5" cy="16.5" r="16.5" transform="translate(609 4980.809)" fill="#a4000c"/>
    <g id="Group_37" data-name="Group 37" transform="translate(6342.026 1240.809)">
      <path id="Path_64" data-name="Path 64" d="M-5716.373,3758.8c0,1.282-.007,2.563.006,3.846,0,.254-.072.316-.318.313-.926-.014-1.853-.017-2.779,0-.283.006-.36-.064-.359-.354.012-2.5,0-5,.016-7.5,0-.352-.058-.506-.444-.461-.313.038-.635,0-.952.011-.185.006-.273-.031-.271-.247.012-.825.01-1.65,0-2.475,0-.192.073-.233.245-.229.394.01.788-.01,1.181.008.229.01.235-.107.234-.278,0-.609-.013-1.219,0-1.828a3.155,3.155,0,0,1,2.044-3.049,4.109,4.109,0,0,1,1.384-.217c.788,0,1.574.01,2.36,0,.177,0,.243.037.24.229q-.016,1.2,0,2.4c0,.2-.081.222-.246.22q-.781-.012-1.561,0a.7.7,0,0,0-.783.774c-.011.495.01.99-.009,1.484-.009.231.079.267.283.264.685-.012,1.371.007,2.056-.01.246-.006.3.063.269.3q-.141,1.209-.241,2.423c-.018.22-.131.232-.3.231-.584-.006-1.167.009-1.751-.008-.244-.008-.319.053-.316.309C-5716.365,3756.233-5716.373,3757.516-5716.373,3758.8Z" transform="translate(1.092 2.354)" fill="#fff"/>
    </g>
  </g>
</svg>
