<svg xmlns="http://www.w3.org/2000/svg" width="16" height="16" viewBox="0 0 16 16">
  <g id="footer_email_icon" transform="translate(-1001.529 -5117.809)">
    <circle id="Ellipse_10" data-name="Ellipse 10" cx="8" cy="8" r="8" transform="translate(1001.529 5117.809)" fill="#a4000c"/>
    <g id="Group_49" data-name="Group 49" transform="translate(6345.094 1288.809)">
      <path id="Path_70" data-name="Path 70" d="M-5335.567,3839.8c-1.138,0-2.276-.006-3.414,0a.571.571,0,0,1-.584-.584c.008-1.278,0-2.556,0-3.835a.474.474,0,0,1,.042-.226.186.186,0,0,1,.232-.1.568.568,0,0,1,.2.108c1.016.771,2.036,1.536,3.044,2.316a.838.838,0,0,0,.97,0c.92-.714,1.853-1.411,2.781-2.115.09-.069.18-.139.271-.206a.764.764,0,0,1,.112-.073.212.212,0,0,1,.34.162.564.564,0,0,1,.01.125v3.862a.533.533,0,0,1-.561.563Z" fill="#fff"/>
      <path id="Path_71" data-name="Path 71" d="M-5335.565,3834.2h3.2a.673.673,0,0,1,.2.019c.12.036.147.116.072.217a1.062,1.062,0,0,1-.206.186l-2.745,2.174a.869.869,0,0,1-1.026,0l-2.816-2.229a.592.592,0,0,1-.154-.161.109.109,0,0,1,.062-.178.529.529,0,0,1,.2-.029Z" fill="#fff"/>
    </g>
  </g>
</svg>
