<svg xmlns="http://www.w3.org/2000/svg" width="16" height="16" viewBox="0 0 16 16">
  <g id="footetr_phone_icon" transform="translate(-1153.26 -5117.809)">
    <circle id="Ellipse_11" data-name="Ellipse 11" cx="8" cy="8" r="8" transform="translate(1153.26 5117.809)" fill="#a4000c"/>
    <g id="Group_52" data-name="Group 52" transform="translate(6340.094 1288.809)">
      <path id="Path_72" data-name="Path 72" d="M-5181.117,3833a.568.568,0,0,1,.286.276c.289.55.58,1.1.868,1.651a.486.486,0,0,1-.093.582c-.12.126-.243.25-.37.37a.227.227,0,0,0-.062.261,2.755,2.755,0,0,0,.5.87,6.528,6.528,0,0,0,1.45,1.363,1.953,1.953,0,0,0,.572.28.232.232,0,0,0,.248-.067c.126-.135.256-.266.386-.4a.547.547,0,0,1,.711-.1q.763.449,1.525.9a.693.693,0,0,1,.166.129.363.363,0,0,1,.027.466,1.261,1.261,0,0,1-.1.116c-.342.34-.689.673-1.024,1.018a.938.938,0,0,1-.81.27,5,5,0,0,1-2.214-.829,9.231,9.231,0,0,1-1.689-1.389,8.99,8.99,0,0,1-1.379-1.748,5.137,5.137,0,0,1-.672-1.7c-.014-.072-.025-.143-.037-.215v-.437a1.047,1.047,0,0,1,.333-.54c.333-.323.659-.655.987-.984a.534.534,0,0,1,.226-.147Z" fill="#fff"/>
    </g>
  </g>
</svg>
