<svg xmlns="http://www.w3.org/2000/svg" width="33" height="33" viewBox="0 0 33 33">
  <g id="footer_twitter_icon" transform="translate(-666.529 -4981)">
    <circle id="Ellipse_13" data-name="Ellipse 13" cx="16.5" cy="16.5" r="16.5" transform="translate(666.529 4981)" fill="#a4000c"/>
    <g id="Group_40" data-name="Group 40" transform="translate(6345.265 1242.978)">
      <path id="Path_66" data-name="Path 66" d="M-5664.409,3758.746a3.2,3.2,0,0,1-2.973-2.22,3.546,3.546,0,0,0,.7.05,2.977,2.977,0,0,0,.695-.1,3.219,3.219,0,0,1-2.523-3.162,3.474,3.474,0,0,0,1.435.377,3.213,3.213,0,0,1-1.328-1.943,3.182,3.182,0,0,1,.347-2.317l.142.164a9.059,9.059,0,0,0,4.064,2.729,9.3,9.3,0,0,0,2.274.441c.1.008.105-.023.088-.11a3.182,3.182,0,0,1,2.563-3.753,3.121,3.121,0,0,1,2.847.9.133.133,0,0,0,.139.04,6.452,6.452,0,0,0,1.828-.691l.12-.064a3.26,3.26,0,0,1-1.381,1.751,2.912,2.912,0,0,0,.47-.068c.149-.028.3-.064.443-.1s.292-.086.436-.136.28-.106.451-.171a5.049,5.049,0,0,1-.348.477,6.384,6.384,0,0,1-1.164,1.113.149.149,0,0,0-.066.141,9.264,9.264,0,0,1-2.2,6.288,8.447,8.447,0,0,1-4.926,2.932,9.432,9.432,0,0,1-2.608.169,8.947,8.947,0,0,1-4.207-1.394A6.52,6.52,0,0,0-5664.409,3758.746Z" fill="#fff"/>
    </g>
  </g>
</svg>
