<svg xmlns="http://www.w3.org/2000/svg" width="112" height="22.086" viewBox="0 0 112 22.086">
  <g id="giddh_logo" transform="translate(-319.075 -1919.763)">
    <rect id="Rectangle_2922" data-name="Rectangle 2922" width="4.849" height="22.076" transform="translate(345.91 1919.766)" fill="#1a237e"/>
    <path id="Path_2404" data-name="Path 2404" d="M1154.082,1951.467h-7.925c-6.558,0-12.371-3.835-12.371-10.976,0-8.076,5.937-11.1,13.024-11.1h7.273v10.317h-4.849v-5.828h-2.859c-4.1,0-7.553,2.027-7.553,6.358,0,5.02,3.388,6.735,7.895,6.735h7.367Z" transform="translate(-776.57 -9.628)" fill="#1a237e" fill-rule="evenodd"/>
    <path id="Path_2405" data-name="Path 2405" d="M2174.32,1951.477h4.848v-9.537h9.418v9.537h4.849V1929.4h-4.849v8.232h-9.418V1929.4h-4.848Z" transform="translate(-1762.36 -9.635)" fill="#1a237e" fill-rule="evenodd"/>
    <path id="Path_2406" data-name="Path 2406" d="M1698.98,1929.4h7.925c6.559,0,12.37,3.835,12.37,10.976,0,8.077-5.937,11.1-13.023,11.1h-7.273v-10.317h4.848v5.828h2.859c4.1,0,7.553-2.027,7.553-6.358,0-5.02-3.388-6.735-7.895-6.735h-7.366Z" transform="translate(-1313.615 -9.629)" fill="#1a237e" fill-rule="evenodd"/>
    <path id="Path_2407" data-name="Path 2407" d="M338.829,1928.488h-8.193v4.272h3.757v3.413a9.012,9.012,0,0,1-4.348,1.039c-3.934,0-6.506-2.848-6.506-6.765s2.573-6.765,6.506-6.765a6.432,6.432,0,0,1,5.087,1.988l3.253-3.56c-2.1-1.959-5.028-2.7-8.341-2.7-6.535,0-11.3,4.3-11.3,11.038s4.762,11.038,11.3,11.038a18.721,18.721,0,0,0,8.785-2.018Z" transform="translate(0.33 0.362)" fill="#1a237e" fill-rule="evenodd"/>
  </g>
</svg>
