<svg width="49" height="23" viewBox="0 0 49 23" fill="none" xmlns="http://www.w3.org/2000/svg">
<path fill-rule="evenodd" clip-rule="evenodd" d="M20.437 22.076H12.512C5.95396 22.076 0.140991 18.241 0.140991 11.1C0.140991 3.02398 6.07804 0 13.165 0H20.438V10.317H15.589V4.48901H12.73C8.62998 4.48901 5.177 6.51605 5.177 10.847C5.177 15.867 8.56502 17.582 13.072 17.582H20.439L20.437 22.076Z" fill="#1A237E"/>
<path fill-rule="evenodd" clip-rule="evenodd" d="M28.29 0.00805664H36.215C42.774 0.00805664 48.585 3.84301 48.585 10.984C48.585 19.061 42.648 22.084 35.562 22.084H28.289V11.7671H33.137V17.5951H35.996C40.096 17.5951 43.549 15.5681 43.549 11.2371C43.549 6.21706 40.161 4.50208 35.654 4.50208H28.288L28.29 0.00805664Z" fill="#1A237E"/>
</svg>
