<svg width="40" height="36" viewBox="0 0 40 36" fill="none" xmlns="http://www.w3.org/2000/svg">
<path d="M0.171876 13.6534L39.2119 0.0124535C39.239 0.00285346 39.2677 -0.00126673 39.2964 0.000338062C39.3251 0.00194285 39.353 0.00923093 39.3789 0.0217919C39.4048 0.0343529 39.4278 0.0519179 39.4468 0.0734887C39.4658 0.0950595 39.4805 0.120195 39.4897 0.147433C39.4986 0.170743 39.5032 0.1955 39.5029 0.220431V35.3024C39.5029 35.3605 39.4795 35.4162 39.4385 35.4573C39.3974 35.4984 39.3418 35.5214 39.2837 35.5214H39.2559L0.207521 33.6214C0.151366 33.6186 0.0987804 33.5943 0.0600597 33.5535C0.021339 33.5128 -6.98518e-05 33.4587 1.1164e-06 33.4024V13.8684C-0.000158635 13.8183 0.0168305 13.7697 0.048341 13.7307C0.0798515 13.6917 0.12381 13.6648 0.172853 13.6545L0.171876 13.6534ZM4.43555 17.4104C4.23518 17.3526 4.02051 17.3767 3.83789 17.4774C3.65527 17.5781 3.51999 17.7472 3.46192 17.9475C3.40442 18.1477 3.42864 18.3625 3.5293 18.5449C3.62996 18.7273 3.79847 18.8624 3.99854 18.9204L18.2617 23.0484L18.5796 22.7844L32.7798 11.0624C32.8594 10.9969 32.9252 10.9163 32.9736 10.8253C33.0221 10.7343 33.0522 10.6346 33.062 10.5319C33.0719 10.4293 33.0615 10.3257 33.0312 10.2271C33.001 10.1286 32.9515 10.0369 32.8857 9.95743C32.8204 9.87766 32.7399 9.81159 32.6489 9.76297C32.558 9.71436 32.4581 9.68417 32.3555 9.67414C32.2528 9.6641 32.1494 9.67442 32.0508 9.7045C31.9521 9.73458 31.8604 9.78383 31.7808 9.84943L17.8989 21.3084L4.43555 17.4104Z" fill="#2176B9"/>
</svg>
