<svg xmlns="http://www.w3.org/2000/svg" width="38.974" height="31.52" viewBox="0 0 38.974 31.52">
  <g id="Group_3842" data-name="Group 3842" opacity="0.4">
    <path id="Path_219" data-name="Path 219" d="M541.294,99.85a30.2,30.2,0,0,0-5.229,5.439A11.633,11.633,0,0,0,533.9,112.4a19.5,19.5,0,0,0,.767,5.161,22.61,22.61,0,0,1,.766,6,6.831,6.831,0,0,1-1.534,4.323A4.756,4.756,0,0,1,530,129.835q-3.906,0-5.369-2.65a12.459,12.459,0,0,1-1.465-6.136,17.535,17.535,0,0,1,1.465-7.112,26.071,26.071,0,0,1,3.905-6.277,36.577,36.577,0,0,1,5.439-5.3,43.058,43.058,0,0,1,6.067-4.045Zm20.844,0a30.242,30.242,0,0,0-5.231,5.439,11.632,11.632,0,0,0-2.161,7.112,19.544,19.544,0,0,0,.766,5.161,22.609,22.609,0,0,1,.767,6,6.837,6.837,0,0,1-1.534,4.323,4.759,4.759,0,0,1-3.905,1.953q-3.906,0-5.37-2.65a12.472,12.472,0,0,1-1.463-6.136,17.555,17.555,0,0,1,1.463-7.112,26.147,26.147,0,0,1,3.905-6.277,36.629,36.629,0,0,1,5.439-5.3,43.059,43.059,0,0,1,6.068-4.045Z" transform="translate(-523.164 -98.315)" fill="#fff"/>
  </g>
</svg>
