<svg width="37" height="36" viewBox="0 0 37 36" fill="none" xmlns="http://www.w3.org/2000/svg">
<path d="M13.95 10.615C13.9479 10.0359 13.7169 9.48109 13.3074 9.07159C12.898 8.6621 12.3431 8.43109 11.764 8.42899C11.1849 8.43109 10.63 8.6621 10.2205 9.07159C9.81104 9.48109 9.58006 10.0359 9.57796 10.615C9.58007 11.194 9.81101 11.7487 10.2205 12.1581C10.6301 12.5674 11.185 12.7981 11.764 12.8C12.3429 12.7979 12.8975 12.567 13.307 12.1577C13.7164 11.7485 13.9477 11.1939 13.95 10.615Z" fill="#010101"/>
<path d="M26.3662 10.615C26.3643 10.0358 26.1332 9.48084 25.7236 9.07129C25.3141 8.66173 24.7594 8.43083 24.1802 8.42899C23.6011 8.43109 23.0465 8.66213 22.6372 9.07166C22.2279 9.48118 21.9969 10.036 21.9951 10.615C21.9972 11.1938 22.2279 11.7484 22.6372 12.1577C23.0465 12.567 23.6013 12.7979 24.1802 12.8C24.7592 12.7981 25.3141 12.5674 25.7236 12.1581C26.1331 11.7487 26.3641 11.194 26.3662 10.615Z" fill="#010101"/>
<path d="M35.2749 32.973H32.729V30.98H35.2749C35.3824 30.9808 35.489 30.9602 35.5884 30.9194C35.6878 30.8786 35.7785 30.8184 35.8545 30.7424C35.9304 30.6664 35.9901 30.576 36.0308 30.4765C36.0714 30.377 36.0922 30.2705 36.0913 30.163C36.0922 30.0555 36.0714 29.9489 36.0308 29.8495C35.9901 29.75 35.9304 29.6596 35.8545 29.5836C35.7785 29.5075 35.6878 29.4473 35.5884 29.4066C35.489 29.3658 35.3824 29.3452 35.2749 29.346H32.729V29.058C32.7299 28.9505 32.7096 28.844 32.6689 28.7445C32.6283 28.645 32.5681 28.5546 32.4922 28.4785C32.4162 28.4025 32.326 28.3424 32.2266 28.3016C32.1271 28.2608 32.0206 28.2402 31.9131 28.241C29.8721 28.241 28.4069 29.154 27.8789 30.667C27.8023 30.6373 27.7213 30.6211 27.6392 30.619H2.73926V2.73798H32.8291V21.95C32.833 22.3119 32.9785 22.6578 33.2344 22.9137C33.4903 23.1696 33.8364 23.3151 34.1982 23.319C34.3781 23.3191 34.556 23.2838 34.7222 23.2151C34.8883 23.1463 35.0394 23.0455 35.1665 22.9183C35.2937 22.7912 35.3946 22.6402 35.4634 22.474C35.5321 22.3079 35.567 22.1298 35.5669 21.95V1.36899C35.5632 1.00704 35.4181 0.66095 35.1621 0.404999C34.9062 0.149048 34.5602 0.00364583 34.1982 0H1.36914C1.00606 0 0.657617 0.144233 0.400879 0.40097C0.144142 0.657708 3.65153e-07 1.00591 3.65152e-07 1.36899V31.987C-0.000131128 32.1668 0.0352522 32.3449 0.104004 32.511C0.172756 32.6772 0.27373 32.8282 0.400879 32.9553C0.528029 33.0825 0.679061 33.1833 0.845215 33.252C1.01137 33.3208 1.18932 33.3561 1.36914 33.356H27.6411C27.7152 33.3517 27.788 33.3355 27.8569 33.308C28.1884 34.0908 28.7605 34.7478 29.4902 35.184C30.22 35.6201 31.0695 35.8127 31.916 35.734C32.0235 35.7348 32.1301 35.7142 32.2295 35.6734C32.3289 35.6326 32.4192 35.5725 32.4951 35.4964C32.5711 35.4204 32.6312 35.33 32.6719 35.2305C32.7125 35.131 32.7329 35.0245 32.7319 34.917V34.629H35.2783C35.3858 34.6298 35.4924 34.6092 35.5918 34.5684C35.6912 34.5276 35.7815 34.4675 35.8574 34.3914C35.9334 34.3154 35.993 34.225 36.0337 34.1255C36.0744 34.026 36.0952 33.9194 36.0942 33.812C36.0966 33.5922 36.0114 33.3804 35.8579 33.2231C35.7044 33.0659 35.4947 32.9759 35.2749 32.973ZM31.0962 34.03C30.5871 33.9918 30.1127 33.7579 29.7725 33.3773C29.4322 32.9968 29.2522 32.4991 29.271 31.989C29.2481 31.4777 29.4265 30.9777 29.7676 30.5961C30.1086 30.2145 30.5855 29.9815 31.0962 29.947V34.03Z" fill="#010101"/>
<path d="M18.3691 22.911C16.8495 22.8972 15.3328 22.777 13.83 22.551C13.6372 22.5173 13.453 22.4456 13.288 22.3402C13.1231 22.2348 12.9807 22.0978 12.8691 21.937C12.7575 21.7762 12.6792 21.5948 12.6381 21.4034C12.5971 21.212 12.594 21.0144 12.6298 20.822C12.662 20.6284 12.7329 20.4433 12.8378 20.2775C12.9428 20.1118 13.08 19.9687 13.2412 19.8569C13.4024 19.745 13.5843 19.6666 13.7763 19.6262C13.9683 19.5859 14.1663 19.5844 14.3588 19.622C16.784 20.0234 19.2589 20.0234 21.684 19.622C22.0692 19.537 22.4723 19.6081 22.8051 19.8197C23.138 20.0313 23.3734 20.3662 23.4599 20.751C23.5449 21.1363 23.4742 21.5396 23.2627 21.8726C23.0511 22.2056 22.7159 22.4413 22.331 22.528C21.0276 22.7955 19.6996 22.9239 18.3691 22.911Z" fill="#010101"/>
</svg>
