<svg width="31" height="31" viewBox="0 0 31 31" fill="none" xmlns="http://www.w3.org/2000/svg">
<path d="M10.79 2.21463C10.411 1.99263 8.15301 0.695632 7.55401 0.346632C7.15986 0.117736 6.7118 -0.00191047 6.25601 2.30685e-05C5.80023 0.00195661 5.3532 0.125401 4.96101 0.357632C4.37101 0.707632 2.13601 1.99063 1.75801 2.20763C1.36784 2.43219 1.04379 2.75566 0.818536 3.14543C0.593281 3.53519 0.474787 3.97746 0.475006 4.42763V8.15763C0.47553 8.6019 0.591708 9.03838 0.812108 9.42413C1.03251 9.80987 1.34954 10.1316 1.73201 10.3576C2.11401 10.5836 4.38101 11.8846 4.98001 12.2336C5.37133 12.4611 5.81588 12.5809 6.26851 12.5809C6.72113 12.5809 7.16569 12.4611 7.55701 12.2336C8.15701 11.8846 10.396 10.5926 10.771 10.3776C11.1627 10.1535 11.4881 9.82987 11.7145 9.4395C11.9409 9.04913 12.06 8.60588 12.06 8.15463V4.42563C12.0601 3.97824 11.9428 3.53864 11.72 3.15069C11.4972 2.76274 11.1765 2.43999 10.79 2.21463ZM9.19501 7.23363C9.19512 7.46159 9.13496 7.68553 9.02064 7.88274C8.90631 8.07996 8.74188 8.24345 8.54401 8.35663C8.35401 8.46463 7.22301 9.11763 6.92001 9.29463C6.72238 9.40873 6.4982 9.4688 6.27001 9.4688C6.04181 9.4688 5.81763 9.40873 5.62001 9.29463C5.32001 9.11763 4.17201 8.46163 3.97901 8.34663C3.78543 8.2322 3.62505 8.06925 3.51369 7.87389C3.40233 7.67853 3.34384 7.4575 3.34401 7.23263V5.34863C3.34394 5.12131 3.40381 4.89798 3.51758 4.70118C3.63134 4.50437 3.79499 4.34103 3.99201 4.22763C4.18201 4.11763 5.31201 3.46963 5.61001 3.29263C5.8084 3.17557 6.03434 3.11332 6.26469 3.11227C6.49505 3.11122 6.72155 3.17139 6.92101 3.28663C7.22101 3.46363 8.36401 4.11763 8.55601 4.23063C8.75114 4.34457 8.913 4.50766 9.02547 4.70365C9.13794 4.89963 9.19708 5.12167 9.19701 5.34763C9.19701 5.71963 9.19701 6.86063 9.19701 7.23363H9.19501Z" fill="#FF8000"/>
<path d="M12.585 17.4216V30.0066H0V17.4216H12.585ZM2.8 20.2186V27.2096H9.788V20.2186H2.8Z" fill="#FFD501"/>
<path d="M23.745 17.4216C24.9893 17.4218 26.2057 17.791 27.2403 18.4824C28.2748 19.1739 29.0811 20.1566 29.5572 21.3063C30.0333 22.4559 30.1579 23.721 29.915 24.9414C29.6722 26.1618 29.073 27.2829 28.1931 28.1627C27.3132 29.0426 26.1922 29.6419 24.9717 29.8847C23.7513 30.1275 22.4863 30.003 21.3366 29.5269C20.1869 29.0508 19.2043 28.2445 18.5128 27.2099C17.8214 26.1753 17.4522 24.959 17.452 23.7146C17.4519 22.8882 17.6145 22.0698 17.9308 21.3063C18.247 20.5427 18.7105 19.8489 19.2949 19.2645C19.8793 18.6801 20.5731 18.2166 21.3366 17.9004C22.1002 17.5842 22.9185 17.4215 23.745 17.4216ZM23.745 19.9376C22.9984 19.9376 22.2685 20.159 21.6477 20.5738C21.0269 20.9886 20.5431 21.5782 20.2573 22.268C19.9716 22.9578 19.8969 23.7168 20.0425 24.4491C20.1882 25.1814 20.5477 25.854 21.0757 26.382C21.6036 26.9099 22.2763 27.2694 23.0085 27.4151C23.7408 27.5608 24.4998 27.486 25.1896 27.2003C25.8794 26.9146 26.469 26.4307 26.8838 25.8099C27.2986 25.1891 27.52 24.4593 27.52 23.7126C27.52 22.7114 27.1223 21.7513 26.4143 21.0433C25.7064 20.3354 24.7462 19.9376 23.745 19.9376Z" fill="#1271D8"/>
<path d="M30.736 12.5086H16.356L23.546 0.00062561L30.736 12.5086ZM20.686 10.0086H26.407L23.547 5.03263L20.686 10.0086Z" fill="#00D478"/>
</svg>
