<svg width="732" height="440" viewBox="0 0 732 440" fill="none" xmlns="http://www.w3.org/2000/svg">
<path d="M289.257 99.7332V83.8345H294.947V80.1679H279.342V83.8345H285.062V99.7332H289.257Z" fill="#212528"/>
<path d="M315.218 99.7332V80.1679H311.023V87.8532H301.783V80.1679H297.618V99.7332H301.783V91.5199H311.023V99.7332H315.218Z" fill="#212528"/>
<path d="M337.319 99.7332L329.78 80.1679H324.559L316.991 99.7332H321.743L322.975 96.4185H331.364L332.567 99.7332H337.319ZM330.22 92.7519H324.119L327.169 84.3332L330.22 92.7519Z" fill="#212528"/>
<path d="M356.638 99.7332V80.1679H352.472V92.4585L343.408 80.1679H339.126V99.7332H343.291V86.9732L352.619 99.7332H356.638Z" fill="#212528"/>
<path d="M377.245 99.7332L368.943 89.3492L376.717 80.1679H371.583L364.661 88.9092V80.1679H360.495V99.7332H364.661V93.7199L366.186 91.9012L372.111 99.7332H377.245Z" fill="#212528"/>
<path d="M396.27 99.7332V91.7252L403.75 80.1679H398.998L394.188 88.0292L389.318 80.1679H384.566L392.105 91.7252V99.7332H396.27Z" fill="#212528"/>
<path d="M413.65 100.085C419.575 100.085 423.887 95.8612 423.887 89.9652C423.887 84.0692 419.575 79.8452 413.65 79.8452C407.754 79.8452 403.442 84.0692 403.442 89.9652C403.442 95.8612 407.754 100.085 413.65 100.085ZM413.65 96.3892C410.042 96.3892 407.725 93.6025 407.725 89.9652C407.725 86.2985 410.042 83.5412 413.65 83.5412C417.258 83.5412 419.605 86.2985 419.605 89.9652C419.605 93.6025 417.258 96.3892 413.65 96.3892Z" fill="#212528"/>
<path d="M435.64 100.085C441.594 100.085 444.469 96.7705 444.469 91.9012V80.1679H440.216V91.7839C440.216 94.5119 438.661 96.3892 435.64 96.3892C432.618 96.3892 431.034 94.5119 431.034 91.7839V80.1679H426.81V91.9305C426.81 96.7412 429.685 100.085 435.64 100.085Z" fill="#212528"/>
<path d="M451.785 93.3679L452.371 80.1679H447.883L448.499 93.3679H451.785ZM450.142 100.027C451.433 100.027 452.518 98.9412 452.518 97.6799C452.518 96.3892 451.433 95.3039 450.142 95.3039C448.851 95.3039 447.795 96.3892 447.795 97.6799C447.795 98.9412 448.851 100.027 450.142 100.027Z" fill="#212528"/>
<path d="M62.5336 170.133V162.926L69.2656 152.524H64.9888L60.6592 159.6L56.2768 152.524H52L58.7848 162.926V170.133H62.5336Z" fill="#23B33A"/>
<path d="M73.4502 170.45C77.6742 170.45 80.2086 167.388 80.2086 163.744C80.2086 160.128 77.6742 157.065 73.4502 157.065C69.2526 157.065 66.7182 160.128 66.7182 163.744C66.7182 167.388 69.2526 170.45 73.4502 170.45ZM73.4502 167.467C71.3646 167.467 70.203 165.751 70.203 163.744C70.203 161.764 71.3646 160.048 73.4502 160.048C75.5358 160.048 76.7238 161.764 76.7238 163.744C76.7238 165.751 75.5358 167.467 73.4502 167.467Z" fill="#23B33A"/>
<path d="M94.6552 170.133V157.382H91.3024V166.015C90.7216 166.754 89.692 167.467 88.3984 167.467C86.9728 167.467 86.0488 166.886 86.0488 165.117V157.382H82.696V166.437C82.696 168.919 84.016 170.45 86.8144 170.45C88.9 170.45 90.4312 169.5 91.3024 168.523V170.133H94.6552Z" fill="#23B33A"/>
<path d="M101.337 170.133V161.712C101.891 160.893 103.37 160.26 104.479 160.26C104.848 160.26 105.165 160.286 105.403 160.339V157.065C103.819 157.065 102.235 157.989 101.337 159.124V157.382H97.9843V170.133H101.337Z" fill="#23B33A"/>
<path d="M125.261 170.133V161.896C125.261 158.227 122.595 157.065 119.691 157.065C117.684 157.065 115.678 157.699 114.12 159.072L115.387 161.316C116.47 160.312 117.737 159.811 119.11 159.811C120.799 159.811 121.908 160.656 121.908 161.949V163.665C121.063 162.662 119.559 162.108 117.869 162.108C115.836 162.108 113.434 163.243 113.434 166.226C113.434 169.077 115.836 170.45 117.869 170.45C119.532 170.45 121.037 169.843 121.908 168.813V170.133H125.261ZM119.215 168.18C117.895 168.18 116.813 167.493 116.813 166.305C116.813 165.064 117.895 164.378 119.215 164.378C120.298 164.378 121.354 164.748 121.908 165.487V167.071C121.354 167.81 120.298 168.18 119.215 168.18Z" fill="#23B33A"/>
<path d="M134.527 170.45C137.14 170.45 138.724 169.315 139.569 168.127L137.378 166.094C136.771 166.939 135.847 167.467 134.685 167.467C132.652 167.467 131.227 165.962 131.227 163.744C131.227 161.527 132.652 160.048 134.685 160.048C135.847 160.048 136.771 160.524 137.378 161.421L139.569 159.362C138.724 158.2 137.14 157.065 134.527 157.065C130.593 157.065 127.768 159.837 127.768 163.744C127.768 167.678 130.593 170.45 134.527 170.45Z" fill="#23B33A"/>
<path d="M147.701 170.45C150.314 170.45 151.898 169.315 152.743 168.127L150.552 166.094C149.945 166.939 149.021 167.467 147.859 167.467C145.826 167.467 144.401 165.962 144.401 163.744C144.401 161.527 145.826 160.048 147.859 160.048C149.021 160.048 149.945 160.524 150.552 161.421L152.743 159.362C151.898 158.2 150.314 157.065 147.701 157.065C143.767 157.065 140.942 159.837 140.942 163.744C140.942 167.678 143.767 170.45 147.701 170.45Z" fill="#23B33A"/>
<path d="M160.849 170.45C165.073 170.45 167.607 167.388 167.607 163.744C167.607 160.128 165.073 157.065 160.849 157.065C156.651 157.065 154.117 160.128 154.117 163.744C154.117 167.388 156.651 170.45 160.849 170.45ZM160.849 167.467C158.763 167.467 157.601 165.751 157.601 163.744C157.601 161.764 158.763 160.048 160.849 160.048C162.934 160.048 164.122 161.764 164.122 163.744C164.122 165.751 162.934 167.467 160.849 167.467Z" fill="#23B33A"/>
<path d="M182.054 170.133V157.382H178.701V166.015C178.12 166.754 177.09 167.467 175.797 167.467C174.371 167.467 173.447 166.886 173.447 165.117V157.382H170.094V166.437C170.094 168.919 171.414 170.45 174.213 170.45C176.298 170.45 177.83 169.5 178.701 168.523V170.133H182.054Z" fill="#23B33A"/>
<path d="M197.342 170.133V161.131C197.342 158.649 195.995 157.065 193.197 157.065C191.111 157.065 189.554 158.068 188.735 159.045V157.382H185.383V170.133H188.735V161.553C189.29 160.788 190.319 160.048 191.639 160.048C193.065 160.048 193.989 160.656 193.989 162.424V170.133H197.342Z" fill="#23B33A"/>
<path d="M204.948 170.45C206.347 170.45 207.245 170.08 207.746 169.632L207.033 167.097C206.849 167.282 206.373 167.467 205.872 167.467C205.133 167.467 204.71 166.86 204.71 166.068V160.312H207.297V157.382H204.71V153.897H201.331V157.382H199.219V160.312H201.331V166.965C201.331 169.236 202.598 170.45 204.948 170.45Z" fill="#23B33A"/>
<path d="M222.286 170.45C224.9 170.45 226.484 169.315 227.328 168.127L225.137 166.094C224.53 166.939 223.606 167.467 222.444 167.467C220.412 167.467 218.986 165.962 218.986 163.744C218.986 161.527 220.412 160.048 222.444 160.048C223.606 160.048 224.53 160.524 225.137 161.421L227.328 159.362C226.484 158.2 224.9 157.065 222.286 157.065C218.352 157.065 215.528 159.837 215.528 163.744C215.528 167.678 218.352 170.45 222.286 170.45Z" fill="#23B33A"/>
<path d="M232.873 170.133V161.712C233.427 160.893 234.906 160.26 236.015 160.26C236.384 160.26 236.701 160.286 236.939 160.339V157.065C235.355 157.065 233.771 157.989 232.873 159.124V157.382H229.52V170.133H232.873Z" fill="#23B33A"/>
<path d="M245.026 170.45C247.006 170.45 249.013 169.843 250.28 168.681L248.801 166.516C247.983 167.308 246.478 167.784 245.396 167.784C243.231 167.784 241.937 166.437 241.726 164.827H251.204V164.088C251.204 159.916 248.617 157.065 244.815 157.065C240.934 157.065 238.215 160.048 238.215 163.744C238.215 167.836 241.145 170.45 245.026 170.45ZM247.957 162.556H241.673C241.832 161.289 242.729 159.732 244.815 159.732C247.033 159.732 247.877 161.342 247.957 162.556Z" fill="#23B33A"/>
<path d="M264.634 170.133V161.896C264.634 158.227 261.968 157.065 259.064 157.065C257.058 157.065 255.051 157.699 253.494 159.072L254.761 161.316C255.843 160.312 257.11 159.811 258.483 159.811C260.173 159.811 261.282 160.656 261.282 161.949V163.665C260.437 162.662 258.932 162.108 257.242 162.108C255.21 162.108 252.807 163.243 252.807 166.226C252.807 169.077 255.21 170.45 257.242 170.45C258.906 170.45 260.41 169.843 261.282 168.813V170.133H264.634ZM258.589 168.18C257.269 168.18 256.186 167.493 256.186 166.305C256.186 165.064 257.269 164.378 258.589 164.378C259.671 164.378 260.727 164.748 261.282 165.487V167.071C260.727 167.81 259.671 168.18 258.589 168.18Z" fill="#23B33A"/>
<path d="M272.237 170.45C273.636 170.45 274.534 170.08 275.035 169.632L274.322 167.097C274.138 167.282 273.662 167.467 273.161 167.467C272.422 167.467 271.999 166.86 271.999 166.068V160.312H274.586V157.382H271.999V153.897H268.62V157.382H266.508V160.312H268.62V166.965C268.62 169.236 269.887 170.45 272.237 170.45Z" fill="#23B33A"/>
<path d="M278.544 156.009C279.652 156.009 280.55 155.112 280.55 154.003C280.55 152.894 279.652 152.023 278.544 152.023C277.461 152.023 276.537 152.894 276.537 154.003C276.537 155.112 277.461 156.009 278.544 156.009ZM280.233 170.133V157.382H276.88V170.133H280.233Z" fill="#23B33A"/>
<path d="M289.471 170.45C293.695 170.45 296.23 167.388 296.23 163.744C296.23 160.128 293.695 157.065 289.471 157.065C285.274 157.065 282.739 160.128 282.739 163.744C282.739 167.388 285.274 170.45 289.471 170.45ZM289.471 167.467C287.386 167.467 286.224 165.751 286.224 163.744C286.224 161.764 287.386 160.048 289.471 160.048C291.557 160.048 292.745 161.764 292.745 163.744C292.745 165.751 291.557 167.467 289.471 167.467Z" fill="#23B33A"/>
<path d="M310.676 170.133V161.131C310.676 158.649 309.33 157.065 306.531 157.065C304.446 157.065 302.888 158.068 302.07 159.045V157.382H298.717V170.133H302.07V161.553C302.624 160.788 303.654 160.048 304.974 160.048C306.399 160.048 307.323 160.656 307.323 162.424V170.133H310.676Z" fill="#23B33A"/>
<path d="M324.113 170.133V161.712C324.667 160.893 326.146 160.26 327.254 160.26C327.624 160.26 327.941 160.286 328.178 160.339V157.065C326.594 157.065 325.01 157.989 324.113 159.124V157.382H320.76V170.133H324.113Z" fill="#23B33A"/>
<path d="M336.266 170.45C338.246 170.45 340.253 169.843 341.52 168.681L340.041 166.516C339.223 167.308 337.718 167.784 336.636 167.784C334.471 167.784 333.177 166.437 332.966 164.827H342.444V164.088C342.444 159.916 339.857 157.065 336.055 157.065C332.174 157.065 329.455 160.048 329.455 163.744C329.455 167.836 332.385 170.45 336.266 170.45ZM339.197 162.556H332.913C333.072 161.289 333.969 159.732 336.055 159.732C338.273 159.732 339.117 161.342 339.197 162.556Z" fill="#23B33A"/>
<path d="M350.7 167.467C348.799 167.467 347.479 165.962 347.479 163.744C347.479 161.553 348.799 160.048 350.7 160.048C351.782 160.048 353.023 160.682 353.577 161.5V166.015C353.023 166.807 351.782 167.467 350.7 167.467ZM349.644 170.45C351.149 170.45 352.548 169.816 353.577 168.496V174.991H356.957V157.382H353.577V158.992C352.601 157.752 351.201 157.065 349.644 157.065C346.37 157.065 343.994 159.494 343.994 163.744C343.994 167.995 346.37 170.45 349.644 170.45Z" fill="#23B33A"/>
<path d="M372.216 170.133V157.382H368.863V166.015C368.282 166.754 367.253 167.467 365.959 167.467C364.534 167.467 363.61 166.886 363.61 165.117V157.382H360.257V166.437C360.257 168.919 361.577 170.45 364.375 170.45C366.461 170.45 367.992 169.5 368.863 168.523V170.133H372.216Z" fill="#23B33A"/>
<path d="M381.538 170.45C383.518 170.45 385.524 169.843 386.792 168.681L385.313 166.516C384.495 167.308 382.99 167.784 381.908 167.784C379.743 167.784 378.449 166.437 378.238 164.827H387.716V164.088C387.716 159.916 385.128 157.065 381.327 157.065C377.446 157.065 374.727 160.048 374.727 163.744C374.727 167.836 377.657 170.45 381.538 170.45ZM384.468 162.556H378.185C378.344 161.289 379.241 159.732 381.327 159.732C383.544 159.732 384.389 161.342 384.468 162.556Z" fill="#23B33A"/>
<path d="M394.731 170.45C398.269 170.45 400.249 168.681 400.249 166.358C400.249 161.21 392.698 162.794 392.698 160.893C392.698 160.18 393.49 159.626 394.705 159.626C396.262 159.626 397.714 160.286 398.48 161.104L399.826 158.808C398.559 157.804 396.843 157.065 394.678 157.065C391.325 157.065 389.451 158.94 389.451 161.078C389.451 166.094 397.028 164.378 397.028 166.49C397.028 167.282 396.341 167.863 394.889 167.863C393.305 167.863 391.405 166.992 390.481 166.12L389.029 168.47C390.375 169.711 392.513 170.45 394.731 170.45Z" fill="#23B33A"/>
<path d="M406.995 170.45C408.395 170.45 409.292 170.08 409.794 169.632L409.081 167.097C408.896 167.282 408.421 167.467 407.919 167.467C407.18 167.467 406.758 166.86 406.758 166.068V160.312H409.345V157.382H406.758V153.897H403.379V157.382H401.267V160.312H403.379V166.965C403.379 169.236 404.646 170.45 406.995 170.45Z" fill="#23B33A"/>
<path d="M433.151 170.133L437.032 157.382H433.547L431.171 165.962L428.373 157.382H425.39L422.591 165.962L420.215 157.382H416.73L420.611 170.133H424.202L426.894 161.448L429.587 170.133H433.151Z" fill="#23B33A"/>
<path d="M449.692 170.133V161.896C449.692 158.227 447.026 157.065 444.122 157.065C442.115 157.065 440.109 157.699 438.551 159.072L439.819 161.316C440.901 160.312 442.168 159.811 443.541 159.811C445.231 159.811 446.339 160.656 446.339 161.949V163.665C445.495 162.662 443.99 162.108 442.3 162.108C440.267 162.108 437.865 163.243 437.865 166.226C437.865 169.077 440.267 170.45 442.3 170.45C443.963 170.45 445.468 169.843 446.339 168.813V170.133H449.692ZM443.647 168.18C442.327 168.18 441.244 167.493 441.244 166.305C441.244 165.064 442.327 164.378 443.647 164.378C444.729 164.378 445.785 164.748 446.339 165.487V167.071C445.785 167.81 444.729 168.18 443.647 168.18Z" fill="#23B33A"/>
<path d="M457.611 170.45C461.149 170.45 463.129 168.681 463.129 166.358C463.129 161.21 455.579 162.794 455.579 160.893C455.579 160.18 456.371 159.626 457.585 159.626C459.143 159.626 460.595 160.286 461.36 161.104L462.707 158.808C461.439 157.804 459.723 157.065 457.559 157.065C454.206 157.065 452.331 158.94 452.331 161.078C452.331 166.094 459.908 164.378 459.908 166.49C459.908 167.282 459.222 167.863 457.77 167.863C456.186 167.863 454.285 166.992 453.361 166.12L451.909 168.47C453.255 169.711 455.394 170.45 457.611 170.45Z" fill="#23B33A"/>
<path d="M476.947 170.45C480.485 170.45 482.465 168.681 482.465 166.358C482.465 161.21 474.915 162.794 474.915 160.893C474.915 160.18 475.707 159.626 476.921 159.626C478.479 159.626 479.931 160.286 480.696 161.104L482.043 158.808C480.775 157.804 479.059 157.065 476.895 157.065C473.542 157.065 471.667 158.94 471.667 161.078C471.667 166.094 479.244 164.378 479.244 166.49C479.244 167.282 478.558 167.863 477.106 167.863C475.522 167.863 473.621 166.992 472.697 166.12L471.245 168.47C472.591 169.711 474.73 170.45 476.947 170.45Z" fill="#23B33A"/>
<path d="M496.894 170.133V157.382H493.541V166.015C492.961 166.754 491.931 167.467 490.637 167.467C489.212 167.467 488.288 166.886 488.288 165.117V157.382H484.935V166.437C484.935 168.919 486.255 170.45 489.053 170.45C491.139 170.45 492.67 169.5 493.541 168.523V170.133H496.894Z" fill="#23B33A"/>
<path d="M506.163 170.45C508.777 170.45 510.361 169.315 511.206 168.127L509.014 166.094C508.407 166.939 507.483 167.467 506.322 167.467C504.289 167.467 502.863 165.962 502.863 163.744C502.863 161.527 504.289 160.048 506.322 160.048C507.483 160.048 508.407 160.524 509.014 161.421L511.206 159.362C510.361 158.2 508.777 157.065 506.163 157.065C502.23 157.065 499.405 159.837 499.405 163.744C499.405 167.678 502.23 170.45 506.163 170.45Z" fill="#23B33A"/>
<path d="M519.337 170.45C521.951 170.45 523.535 169.315 524.38 168.127L522.189 166.094C521.581 166.939 520.657 167.467 519.496 167.467C517.463 167.467 516.037 165.962 516.037 163.744C516.037 161.527 517.463 160.048 519.496 160.048C520.657 160.048 521.581 160.524 522.189 161.421L524.38 159.362C523.535 158.2 521.951 157.065 519.337 157.065C515.404 157.065 512.579 159.837 512.579 163.744C512.579 167.678 515.404 170.45 519.337 170.45Z" fill="#23B33A"/>
<path d="M532.565 170.45C534.545 170.45 536.551 169.843 537.818 168.681L536.34 166.516C535.521 167.308 534.017 167.784 532.934 167.784C530.769 167.784 529.476 166.437 529.265 164.827H538.742V164.088C538.742 159.916 536.155 157.065 532.353 157.065C528.473 157.065 525.753 160.048 525.753 163.744C525.753 167.836 528.684 170.45 532.565 170.45ZM535.495 162.556H529.212C529.37 161.289 530.268 159.732 532.353 159.732C534.571 159.732 535.416 161.342 535.495 162.556Z" fill="#23B33A"/>
<path d="M545.758 170.45C549.295 170.45 551.275 168.681 551.275 166.358C551.275 161.21 543.725 162.794 543.725 160.893C543.725 160.18 544.517 159.626 545.731 159.626C547.289 159.626 548.741 160.286 549.506 161.104L550.853 158.808C549.586 157.804 547.87 157.065 545.705 157.065C542.352 157.065 540.478 158.94 540.478 161.078C540.478 166.094 548.054 164.378 548.054 166.49C548.054 167.282 547.368 167.863 545.916 167.863C544.332 167.863 542.431 166.992 541.507 166.12L540.055 168.47C541.402 169.711 543.54 170.45 545.758 170.45Z" fill="#23B33A"/>
<path d="M558.339 170.45C561.876 170.45 563.856 168.681 563.856 166.358C563.856 161.21 556.306 162.794 556.306 160.893C556.306 160.18 557.098 159.626 558.312 159.626C559.87 159.626 561.322 160.286 562.088 161.104L563.434 158.808C562.167 157.804 560.451 157.065 558.286 157.065C554.933 157.065 553.059 158.94 553.059 161.078C553.059 166.094 560.636 164.378 560.636 166.49C560.636 167.282 559.949 167.863 558.497 167.863C556.913 167.863 555.012 166.992 554.088 166.12L552.636 168.47C553.983 169.711 556.121 170.45 558.339 170.45Z" fill="#23B33A"/>
<path d="M570.445 170.133V160.312H573.032V157.382H570.445V156.696C570.445 155.508 571.105 154.9 572.029 154.9C572.636 154.9 573.085 155.085 573.428 155.428L574.695 153.448C573.877 152.577 572.583 152.26 571.369 152.26C568.808 152.26 567.066 153.976 567.066 156.696V157.382H564.954V160.312H567.066V170.133H570.445Z" fill="#23B33A"/>
<path d="M586.922 170.133V157.382H583.57V166.015C582.989 166.754 581.959 167.467 580.666 167.467C579.24 167.467 578.316 166.886 578.316 165.117V157.382H574.963V166.437C574.963 168.919 576.283 170.45 579.082 170.45C581.167 170.45 582.698 169.5 583.57 168.523V170.133H586.922Z" fill="#23B33A"/>
<path d="M593.604 170.133V152.524H590.251V170.133H593.604Z" fill="#23B33A"/>
<path d="M600.282 170.133V152.524H596.929V170.133H600.282Z" fill="#23B33A"/>
<path d="M603.157 175.123C603.58 175.228 604.425 175.308 604.821 175.308C607.012 175.255 608.701 174.621 609.652 172.219L615.645 157.382H612.028L608.701 166.252L605.375 157.382H601.784L606.959 170.318L606.484 171.4C606.167 172.087 605.586 172.324 604.715 172.324C604.398 172.324 603.949 172.245 603.659 172.113L603.157 175.123Z" fill="#23B33A"/>
<path d="M628.49 170.45C632.027 170.45 634.007 168.681 634.007 166.358C634.007 161.21 626.457 162.794 626.457 160.893C626.457 160.18 627.249 159.626 628.463 159.626C630.021 159.626 631.473 160.286 632.238 161.104L633.585 158.808C632.318 157.804 630.602 157.065 628.437 157.065C625.084 157.065 623.21 158.94 623.21 161.078C623.21 166.094 630.786 164.378 630.786 166.49C630.786 167.282 630.1 167.863 628.648 167.863C627.064 167.863 625.163 166.992 624.239 166.12L622.787 168.47C624.134 169.711 626.272 170.45 628.49 170.45Z" fill="#23B33A"/>
<path d="M642.47 170.45C644.45 170.45 646.456 169.843 647.724 168.681L646.245 166.516C645.427 167.308 643.922 167.784 642.84 167.784C640.675 167.784 639.381 166.437 639.17 164.827H648.648V164.088C648.648 159.916 646.06 157.065 642.259 157.065C638.378 157.065 635.659 160.048 635.659 163.744C635.659 167.836 638.589 170.45 642.47 170.45ZM645.4 162.556H639.117C639.276 161.289 640.173 159.732 642.259 159.732C644.476 159.732 645.321 161.342 645.4 162.556Z" fill="#23B33A"/>
<path d="M663.029 170.133V161.131C663.029 158.649 661.682 157.065 658.884 157.065C656.798 157.065 655.241 158.068 654.422 159.045V157.382H651.069V170.133H654.422V161.553C654.977 160.788 656.006 160.048 657.326 160.048C658.752 160.048 659.676 160.656 659.676 162.424V170.133H663.029Z" fill="#23B33A"/>
<path d="M670.634 170.45C672.034 170.45 672.931 170.08 673.433 169.632L672.72 167.097C672.535 167.282 672.06 167.467 671.558 167.467C670.819 167.467 670.397 166.86 670.397 166.068V160.312H672.984V157.382H670.397V153.897H667.018V157.382H664.906V160.312H667.018V166.965C667.018 169.236 668.285 170.45 670.634 170.45Z" fill="#23B33A"/>
<path d="M676.994 170.424C678.156 170.424 679.132 169.447 679.132 168.285C679.132 167.124 678.156 166.147 676.994 166.147C675.832 166.147 674.856 167.124 674.856 168.285C674.856 169.447 675.832 170.424 676.994 170.424Z" fill="#23B33A"/>
<path d="M144.487 236.133V229.516L150.635 220.481H148.359L143.501 227.756L138.643 220.481H136.367L142.539 229.516V236.133H144.487Z" fill="#212528"/>
<path d="M154.578 236.415C158.027 236.415 160.186 233.74 160.186 230.454C160.186 227.169 158.027 224.517 154.578 224.517C151.128 224.517 148.969 227.169 148.969 230.454C148.969 233.74 151.128 236.415 154.578 236.415ZM154.578 234.843C152.161 234.843 150.8 232.777 150.8 230.454C150.8 228.155 152.161 226.089 154.578 226.089C156.995 226.089 158.332 228.155 158.332 230.454C158.332 232.777 156.995 234.843 154.578 234.843Z" fill="#212528"/>
<path d="M172.466 236.133V224.799H170.706V233.129C170.049 234.045 168.734 234.843 167.35 234.843C165.825 234.843 164.816 234.256 164.816 232.261V224.799H163.056V232.801C163.056 235.265 164.299 236.415 166.669 236.415C168.359 236.415 169.837 235.523 170.706 234.537V236.133H172.466Z" fill="#212528"/>
<path d="M177.741 236.133V228.108C178.257 227.192 179.735 226.301 180.815 226.301C181.096 226.301 181.307 226.324 181.519 226.371V224.564C179.97 224.564 178.656 225.432 177.741 226.629V224.799H175.981V236.133H177.741Z" fill="#212528"/>
<path d="M191.536 236.133V228.108C192.053 227.192 193.531 226.301 194.61 226.301C194.892 226.301 195.103 226.324 195.315 226.371V224.564C193.766 224.564 192.452 225.432 191.536 226.629V224.799H189.776V236.133H191.536Z" fill="#212528"/>
<path d="M202.638 236.415C204.492 236.415 206.017 235.805 207.144 234.678L206.299 233.528C205.407 234.444 204.093 234.96 202.802 234.96C200.362 234.96 198.86 233.176 198.719 231.041H207.894V230.595C207.894 227.192 205.876 224.517 202.45 224.517C199.212 224.517 196.865 227.169 196.865 230.454C196.865 233.998 199.282 236.415 202.638 236.415ZM206.158 229.75H198.719C198.813 228.014 200.01 225.972 202.427 225.972C205.008 225.972 206.134 228.061 206.158 229.75Z" fill="#212528"/>
<path d="M215.485 234.843C213.209 234.843 211.872 232.965 211.872 230.454C211.872 227.943 213.209 226.089 215.485 226.089C216.893 226.089 218.278 226.911 218.865 227.896V233.012C218.278 233.998 216.893 234.843 215.485 234.843ZM215.063 236.415C216.588 236.415 217.949 235.687 218.865 234.42V240.451H220.625V224.799H218.865V226.488C218.067 225.339 216.659 224.517 215.063 224.517C212.083 224.517 210.018 226.77 210.018 230.454C210.018 234.115 212.083 236.415 215.063 236.415Z" fill="#212528"/>
<path d="M233.584 236.133V224.799H231.824V233.129C231.167 234.045 229.853 234.843 228.469 234.843C226.943 234.843 225.934 234.256 225.934 232.261V224.799H224.174V232.801C224.174 235.265 225.418 236.415 227.788 236.415C229.478 236.415 230.956 235.523 231.824 234.537V236.133H233.584Z" fill="#212528"/>
<path d="M242.215 236.415C244.069 236.415 245.594 235.805 246.721 234.678L245.876 233.528C244.984 234.444 243.67 234.96 242.379 234.96C239.939 234.96 238.437 233.176 238.296 231.041H247.472V230.595C247.472 227.192 245.453 224.517 242.027 224.517C238.789 224.517 236.442 227.169 236.442 230.454C236.442 233.998 238.859 236.415 242.215 236.415ZM245.735 229.75H238.296C238.39 228.014 239.587 225.972 242.004 225.972C244.585 225.972 245.712 228.061 245.735 229.75Z" fill="#212528"/>
<path d="M253.913 236.415C256.846 236.415 258.371 234.889 258.371 232.989C258.371 228.577 251.355 230.22 251.355 227.732C251.355 226.723 252.317 225.949 253.866 225.949C255.321 225.949 256.564 226.559 257.245 227.38L258.066 226.16C257.151 225.245 255.79 224.517 253.866 224.517C251.167 224.517 249.642 226.019 249.642 227.779C249.642 231.98 256.658 230.29 256.658 233.036C256.658 234.162 255.72 234.983 253.983 234.983C252.434 234.983 251.003 234.232 250.252 233.364L249.337 234.631C250.486 235.852 252.059 236.415 253.913 236.415Z" fill="#212528"/>
<path d="M264.093 236.415C265.126 236.415 265.76 236.11 266.205 235.687L265.689 234.373C265.455 234.631 264.985 234.843 264.492 234.843C263.718 234.843 263.343 234.232 263.343 233.388V226.348H265.642V224.799H263.343V221.701H261.583V224.799H259.705V226.348H261.583V233.763C261.583 235.453 262.427 236.415 264.093 236.415Z" fill="#212528"/>
<path d="M275.047 223.18C275.704 223.18 276.244 222.663 276.244 222.006C276.244 221.349 275.704 220.809 275.047 220.809C274.413 220.809 273.873 221.349 273.873 222.006C273.873 222.663 274.413 223.18 275.047 223.18ZM275.938 236.133V224.799H274.178V236.133H275.938Z" fill="#212528"/>
<path d="M283.04 236.415C285.973 236.415 287.498 234.889 287.498 232.989C287.498 228.577 280.482 230.22 280.482 227.732C280.482 226.723 281.444 225.949 282.993 225.949C284.448 225.949 285.691 226.559 286.372 227.38L287.193 226.16C286.278 225.245 284.917 224.517 282.993 224.517C280.294 224.517 278.769 226.019 278.769 227.779C278.769 231.98 285.785 230.29 285.785 233.036C285.785 234.162 284.847 234.983 283.11 234.983C281.561 234.983 280.13 234.232 279.379 233.364L278.464 234.631C279.614 235.852 281.186 236.415 283.04 236.415Z" fill="#212528"/>
<path d="M301.406 236.415C303.471 236.415 304.691 235.57 305.56 234.444L304.386 233.364C303.635 234.373 302.673 234.843 301.5 234.843C299.083 234.843 297.581 232.965 297.581 230.454C297.581 227.943 299.083 226.089 301.5 226.089C302.673 226.089 303.635 226.535 304.386 227.568L305.56 226.488C304.691 225.362 303.471 224.517 301.406 224.517C298.027 224.517 295.751 227.099 295.751 230.454C295.751 233.833 298.027 236.415 301.406 236.415Z" fill="#212528"/>
<path d="M317.436 236.133V224.799H315.676V233.129C315.019 234.045 313.705 234.843 312.321 234.843C310.795 234.843 309.786 234.256 309.786 232.261V224.799H308.026V232.801C308.026 235.265 309.27 236.415 311.64 236.415C313.33 236.415 314.808 235.523 315.676 234.537V236.133H317.436Z" fill="#212528"/>
<path d="M322.711 236.133V228.108C323.228 227.192 324.706 226.301 325.785 226.301C326.067 226.301 326.278 226.324 326.489 226.371V224.564C324.941 224.564 323.627 225.432 322.711 226.629V224.799H320.951V236.133H322.711Z" fill="#212528"/>
<path d="M330.457 236.133V228.108C330.973 227.192 332.452 226.301 333.531 226.301C333.813 226.301 334.024 226.324 334.235 226.371V224.564C332.687 224.564 331.372 225.432 330.457 226.629V224.799H328.697V236.133H330.457Z" fill="#212528"/>
<path d="M341.559 236.415C343.413 236.415 344.938 235.805 346.064 234.678L345.22 233.528C344.328 234.444 343.014 234.96 341.723 234.96C339.282 234.96 337.781 233.176 337.64 231.041H346.815V230.595C346.815 227.192 344.797 224.517 341.371 224.517C338.133 224.517 335.786 227.169 335.786 230.454C335.786 233.998 338.203 236.415 341.559 236.415ZM345.079 229.75H337.64C337.734 228.014 338.93 225.972 341.348 225.972C343.929 225.972 345.055 228.061 345.079 229.75Z" fill="#212528"/>
<path d="M359.076 236.133V228.178C359.076 225.714 357.832 224.517 355.462 224.517C353.773 224.517 352.224 225.503 351.426 226.441V224.799H349.666V236.133H351.426V227.849C352.083 226.934 353.397 226.089 354.782 226.089C356.307 226.089 357.316 226.723 357.316 228.718V236.133H359.076Z" fill="#212528"/>
<path d="M365.454 236.415C366.486 236.415 367.12 236.11 367.566 235.687L367.05 234.373C366.815 234.631 366.346 234.843 365.853 234.843C365.078 234.843 364.703 234.232 364.703 233.388V226.348H367.003V224.799H364.703V221.701H362.943V224.799H361.066V226.348H362.943V233.763C362.943 235.453 363.788 236.415 365.454 236.415Z" fill="#212528"/>
<path d="M371.249 236.133V220.481H369.489V236.133H371.249Z" fill="#212528"/>
<path d="M374.126 240.568C374.455 240.662 375.041 240.733 375.417 240.733C376.919 240.709 378.068 240.076 378.749 238.433L384.428 224.799H382.504L378.749 234.092L374.971 224.799H373.07L377.81 236.251L377.059 237.964C376.66 238.902 376.144 239.16 375.37 239.16C375.088 239.16 374.666 239.09 374.408 238.973L374.126 240.568Z" fill="#212528"/>
<path d="M393.182 223.18C393.839 223.18 394.379 222.663 394.379 222.006C394.379 221.349 393.839 220.809 393.182 220.809C392.549 220.809 392.009 221.349 392.009 222.006C392.009 222.663 392.549 223.18 393.182 223.18ZM394.074 236.133V224.799H392.314V236.133H394.074Z" fill="#212528"/>
<path d="M406.995 236.133V228.178C406.995 225.714 405.751 224.517 403.381 224.517C401.691 224.517 400.143 225.503 399.345 226.441V224.799H397.585V236.133H399.345V227.849C400.002 226.934 401.316 226.089 402.7 226.089C404.226 226.089 405.235 226.723 405.235 228.718V236.133H406.995Z" fill="#212528"/>
<path d="M419.423 236.415C420.455 236.415 421.089 236.11 421.535 235.687L421.018 234.373C420.784 234.631 420.314 234.843 419.822 234.843C419.047 234.843 418.672 234.232 418.672 233.388V226.348H420.971V224.799H418.672V221.701H416.912V224.799H415.034V226.348H416.912V233.763C416.912 235.453 417.756 236.415 419.423 236.415Z" fill="#212528"/>
<path d="M432.891 236.133V228.131C432.891 225.667 431.647 224.517 429.277 224.517C427.564 224.517 426.015 225.503 425.218 226.441V220.481H423.458V236.133H425.218V227.849C425.898 226.934 427.212 226.089 428.573 226.089C430.099 226.089 431.131 226.676 431.131 228.671V236.133H432.891Z" fill="#212528"/>
<path d="M441.521 236.415C443.375 236.415 444.9 235.805 446.027 234.678L445.182 233.528C444.29 234.444 442.976 234.96 441.686 234.96C439.245 234.96 437.743 233.176 437.602 231.041H446.778V230.595C446.778 227.192 444.76 224.517 441.334 224.517C438.095 224.517 435.748 227.169 435.748 230.454C435.748 233.998 438.166 236.415 441.521 236.415ZM445.041 229.75H437.602C437.696 228.014 438.893 225.972 441.31 225.972C443.891 225.972 445.018 228.061 445.041 229.75Z" fill="#212528"/>
<path d="M457.438 236.133V228.108C457.955 227.192 459.433 226.301 460.513 226.301C460.794 226.301 461.005 226.324 461.217 226.371V224.564C459.668 224.564 458.354 225.432 457.438 226.629V224.799H455.678V236.133H457.438Z" fill="#212528"/>
<path d="M468.54 236.415C470.394 236.415 471.919 235.805 473.046 234.678L472.201 233.528C471.309 234.444 469.995 234.96 468.704 234.96C466.264 234.96 464.762 233.176 464.621 231.041H473.797V230.595C473.797 227.192 471.778 224.517 468.352 224.517C465.114 224.517 462.767 227.169 462.767 230.454C462.767 233.998 465.184 236.415 468.54 236.415ZM472.06 229.75H464.621C464.715 228.014 465.912 225.972 468.329 225.972C470.91 225.972 472.037 228.061 472.06 229.75Z" fill="#212528"/>
<path d="M481.599 236.133L486.315 224.799H484.391L480.637 234.092L476.858 224.799H474.958L479.674 236.133H481.599Z" fill="#212528"/>
<path d="M489.02 223.18C489.677 223.18 490.216 222.663 490.216 222.006C490.216 221.349 489.677 220.809 489.02 220.809C488.386 220.809 487.846 221.349 487.846 222.006C487.846 222.663 488.386 223.18 489.02 223.18ZM489.911 236.133V224.799H488.151V236.133H489.911Z" fill="#212528"/>
<path d="M498.538 236.415C500.392 236.415 501.917 235.805 503.044 234.678L502.199 233.528C501.307 234.444 499.993 234.96 498.702 234.96C496.262 234.96 494.76 233.176 494.619 231.041H503.794V230.595C503.794 227.192 501.776 224.517 498.35 224.517C495.112 224.517 492.765 227.169 492.765 230.454C492.765 233.998 495.182 236.415 498.538 236.415ZM502.058 229.75H494.619C494.713 228.014 495.91 225.972 498.327 225.972C500.908 225.972 502.034 228.061 502.058 229.75Z" fill="#212528"/>
<path d="M518.214 236.133L521.828 224.799H519.998L517.229 233.833L514.248 224.799H512.746L509.766 233.833L506.997 224.799H505.167L508.781 236.133H510.541L513.497 227.028L516.454 236.133H518.214Z" fill="#212528"/>
<path d="M533.519 236.415C536.452 236.415 537.978 234.889 537.978 232.989C537.978 228.577 530.961 230.22 530.961 227.732C530.961 226.723 531.923 225.949 533.472 225.949C534.927 225.949 536.171 226.559 536.851 227.38L537.672 226.16C536.757 225.245 535.396 224.517 533.472 224.517C530.773 224.517 529.248 226.019 529.248 227.779C529.248 231.98 536.264 230.29 536.264 233.036C536.264 234.162 535.326 234.983 533.589 234.983C532.04 234.983 530.609 234.232 529.858 233.364L528.943 234.631C530.093 235.852 531.665 236.415 533.519 236.415Z" fill="#212528"/>
<path d="M543.7 236.415C544.732 236.415 545.366 236.11 545.812 235.687L545.295 234.373C545.061 234.631 544.591 234.843 544.099 234.843C543.324 234.843 542.949 234.232 542.949 233.388V226.348H545.249V224.799H542.949V221.701H541.189V224.799H539.311V226.348H541.189V233.763C541.189 235.453 542.034 236.415 543.7 236.415Z" fill="#212528"/>
<path d="M556.582 236.133V228.342C556.582 225.597 554.587 224.517 552.193 224.517C550.339 224.517 548.885 225.127 547.664 226.395L548.486 227.615C549.495 226.535 550.598 226.043 551.959 226.043C553.601 226.043 554.822 226.911 554.822 228.436V230.478C553.906 229.422 552.616 228.929 551.067 228.929C549.143 228.929 547.101 230.126 547.101 232.66C547.101 235.124 549.143 236.415 551.067 236.415C552.592 236.415 553.883 235.875 554.822 234.843V236.133H556.582ZM551.701 235.148C550.058 235.148 548.908 234.115 548.908 232.684C548.908 231.229 550.058 230.196 551.701 230.196C552.944 230.196 554.141 230.665 554.822 231.604V233.74C554.141 234.678 552.944 235.148 551.701 235.148Z" fill="#212528"/>
<path d="M564.662 240.733C567.431 240.733 570.06 239.559 570.06 235.805V224.799H568.3V226.512C567.384 225.268 566.023 224.517 564.498 224.517C561.518 224.517 559.453 226.77 559.453 230.407C559.453 234.068 561.541 236.274 564.498 236.274C566.094 236.274 567.478 235.406 568.3 234.256V235.875C568.3 238.363 566.54 239.278 564.662 239.278C563.043 239.278 561.917 238.855 560.978 237.729L560.086 239.043C561.424 240.357 562.738 240.733 564.662 240.733ZM564.92 234.725C562.644 234.725 561.283 232.895 561.283 230.407C561.283 227.896 562.644 226.089 564.92 226.089C566.328 226.089 567.689 226.934 568.3 227.92V232.871C567.689 233.857 566.328 234.725 564.92 234.725Z" fill="#212528"/>
<path d="M578.7 236.415C580.554 236.415 582.08 235.805 583.206 234.678L582.361 233.528C581.469 234.444 580.155 234.96 578.865 234.96C576.424 234.96 574.922 233.176 574.781 231.041H583.957V230.595C583.957 227.192 581.939 224.517 578.513 224.517C575.274 224.517 572.928 227.169 572.928 230.454C572.928 233.998 575.345 236.415 578.7 236.415ZM582.22 229.75H574.781C574.875 228.014 576.072 225.972 578.489 225.972C581.071 225.972 582.197 228.061 582.22 229.75Z" fill="#212528"/>
<path d="M587.586 236.368C588.29 236.368 588.877 235.781 588.877 235.077C588.877 234.373 588.29 233.787 587.586 233.787C586.882 233.787 586.295 234.373 586.295 235.077C586.295 235.781 586.882 236.368 587.586 236.368Z" fill="#212528"/>
<path d="M73.0129 265.748C77.6359 265.748 80.7804 262.275 80.7804 257.652C80.7804 253.029 77.6359 249.556 73.0129 249.556C68.3665 249.556 65.2455 253.029 65.2455 257.652C65.2455 262.275 68.3665 265.748 73.0129 265.748ZM73.0129 264.012C69.4929 264.012 67.2636 261.289 67.2636 257.652C67.2636 253.991 69.4929 251.293 73.0129 251.293C76.5095 251.293 78.7623 253.991 78.7623 257.652C78.7623 261.289 76.5095 264.012 73.0129 264.012Z" fill="#212528"/>
<path d="M93.1625 265.467V254.132H91.4025V262.463C90.7455 263.378 89.4313 264.176 88.0468 264.176C86.5215 264.176 85.5124 263.589 85.5124 261.595V254.132H83.7524V262.134C83.7524 264.598 84.9961 265.748 87.3663 265.748C89.0559 265.748 90.5343 264.856 91.4025 263.871V265.467H93.1625Z" fill="#212528"/>
<path d="M98.4374 265.467V257.441C98.9537 256.526 100.432 255.634 101.512 255.634C101.793 255.634 102.004 255.657 102.216 255.704V253.897C100.667 253.897 99.3526 254.766 98.4374 255.963V254.132H96.6774V265.467H98.4374Z" fill="#212528"/>
<path d="M113.336 265.748C114.369 265.748 115.002 265.443 115.448 265.021L114.932 263.707C114.697 263.965 114.228 264.176 113.735 264.176C112.961 264.176 112.585 263.566 112.585 262.721V255.681H114.885V254.132H112.585V251.035H110.825V254.132H108.948V255.681H110.825V263.096C110.825 264.786 111.67 265.748 113.336 265.748Z" fill="#212528"/>
<path d="M122.487 265.748C124.341 265.748 125.866 265.138 126.992 264.012L126.148 262.862C125.256 263.777 123.942 264.293 122.651 264.293C120.211 264.293 118.709 262.51 118.568 260.374H127.743V259.928C127.743 256.526 125.725 253.851 122.299 253.851C119.061 253.851 116.714 256.502 116.714 259.788C116.714 263.331 119.131 265.748 122.487 265.748ZM126.007 259.084H118.568C118.662 257.347 119.859 255.305 122.276 255.305C124.857 255.305 125.983 257.394 126.007 259.084Z" fill="#212528"/>
<path d="M139.441 265.467V257.676C139.441 254.93 137.446 253.851 135.053 253.851C133.199 253.851 131.744 254.461 130.524 255.728L131.345 256.948C132.354 255.869 133.457 255.376 134.818 255.376C136.461 255.376 137.681 256.244 137.681 257.769V259.811C136.766 258.755 135.475 258.262 133.926 258.262C132.002 258.262 129.96 259.459 129.96 261.993C129.96 264.457 132.002 265.748 133.926 265.748C135.452 265.748 136.742 265.208 137.681 264.176V265.467H139.441ZM134.56 264.481C132.917 264.481 131.767 263.448 131.767 262.017C131.767 260.562 132.917 259.529 134.56 259.529C135.804 259.529 137 259.999 137.681 260.937V263.073C137 264.012 135.804 264.481 134.56 264.481Z" fill="#212528"/>
<path d="M158.41 265.467V257.277C158.41 255 157.307 253.851 155.242 253.851C153.599 253.851 152.074 254.93 151.441 255.963C151.112 254.789 150.126 253.851 148.39 253.851C146.724 253.851 145.198 255.047 144.729 255.775V254.132H142.969V265.467H144.729V257.183C145.339 256.268 146.559 255.423 147.709 255.423C149.188 255.423 149.798 256.338 149.798 257.769V265.467H151.558V257.159C152.145 256.268 153.388 255.423 154.562 255.423C156.017 255.423 156.65 256.338 156.65 257.769V265.467H158.41Z" fill="#212528"/>
<path d="M179.54 265.467L183.154 254.132H181.324L178.555 263.167L175.574 254.132H174.072L171.092 263.167L168.323 254.132H166.493L170.107 265.467H171.867L174.823 256.361L177.78 265.467H179.54Z" fill="#212528"/>
<path d="M186.073 252.513C186.73 252.513 187.27 251.997 187.27 251.34C187.27 250.683 186.73 250.143 186.073 250.143C185.439 250.143 184.899 250.683 184.899 251.34C184.899 251.997 185.439 252.513 186.073 252.513ZM186.964 265.467V254.132H185.204V265.467H186.964Z" fill="#212528"/>
<path d="M192.235 265.467V249.814H190.475V265.467H192.235Z" fill="#212528"/>
<path d="M197.506 265.467V249.814H195.746V265.467H197.506Z" fill="#212528"/>
<path d="M208.827 265.467V257.441C209.343 256.526 210.822 255.634 211.901 255.634C212.183 255.634 212.394 255.657 212.605 255.704V253.897C211.056 253.897 209.742 254.766 208.827 255.963V254.132H207.067V265.467H208.827Z" fill="#212528"/>
<path d="M219.929 265.748C221.782 265.748 223.308 265.138 224.434 264.012L223.589 262.862C222.698 263.777 221.383 264.293 220.093 264.293C217.652 264.293 216.15 262.51 216.01 260.374H225.185V259.928C225.185 256.526 223.167 253.851 219.741 253.851C216.502 253.851 214.156 256.502 214.156 259.788C214.156 263.331 216.573 265.748 219.929 265.748ZM223.449 259.084H216.01C216.103 257.347 217.3 255.305 219.717 255.305C222.299 255.305 223.425 257.394 223.449 259.084Z" fill="#212528"/>
<path d="M232.987 265.467L237.704 254.132H235.78L232.025 263.425L228.247 254.132H226.346L231.063 265.467H232.987Z" fill="#212528"/>
<path d="M240.408 252.513C241.065 252.513 241.605 251.997 241.605 251.34C241.605 250.683 241.065 250.143 240.408 250.143C239.775 250.143 239.235 250.683 239.235 251.34C239.235 251.997 239.775 252.513 240.408 252.513ZM241.3 265.467V254.132H239.54V265.467H241.3Z" fill="#212528"/>
<path d="M249.926 265.748C251.78 265.748 253.306 265.138 254.432 264.012L253.587 262.862C252.696 263.777 251.381 264.293 250.091 264.293C247.65 264.293 246.148 262.51 246.008 260.374H255.183V259.928C255.183 256.526 253.165 253.851 249.739 253.851C246.5 253.851 244.154 256.502 244.154 259.788C244.154 263.331 246.571 265.748 249.926 265.748ZM253.446 259.084H246.008C246.101 257.347 247.298 255.305 249.715 255.305C252.297 255.305 253.423 257.394 253.446 259.084Z" fill="#212528"/>
<path d="M269.603 265.467L273.217 254.132H271.386L268.617 263.167L265.637 254.132H264.135L261.155 263.167L258.386 254.132H256.555L260.169 265.467H261.929L264.886 256.361L267.843 265.467H269.603Z" fill="#212528"/>
<path d="M282.185 252.513C282.842 252.513 283.382 251.997 283.382 251.34C283.382 250.683 282.842 250.143 282.185 250.143C281.552 250.143 281.012 250.683 281.012 251.34C281.012 251.997 281.552 252.513 282.185 252.513ZM283.077 265.467V254.132H281.317V265.467H283.077Z" fill="#212528"/>
<path d="M289.451 265.748C290.483 265.748 291.117 265.443 291.563 265.021L291.046 263.707C290.812 263.965 290.342 264.176 289.85 264.176C289.075 264.176 288.7 263.566 288.7 262.721V255.681H291V254.132H288.7V251.035H286.94V254.132H285.062V255.681H286.94V263.096C286.94 264.786 287.785 265.748 289.451 265.748Z" fill="#212528"/>
<path d="M308.383 265.467V257.676C308.383 254.93 306.388 253.851 303.994 253.851C302.141 253.851 300.686 254.461 299.465 255.728L300.287 256.948C301.296 255.869 302.399 255.376 303.76 255.376C305.402 255.376 306.623 256.244 306.623 257.769V259.811C305.707 258.755 304.417 258.262 302.868 258.262C300.944 258.262 298.902 259.459 298.902 261.993C298.902 264.457 300.944 265.748 302.868 265.748C304.393 265.748 305.684 265.208 306.623 264.176V265.467H308.383ZM303.502 264.481C301.859 264.481 300.709 263.448 300.709 262.017C300.709 260.562 301.859 259.529 303.502 259.529C304.745 259.529 305.942 259.999 306.623 260.937V263.073C305.942 264.012 304.745 264.481 303.502 264.481Z" fill="#212528"/>
<path d="M321.321 265.467V257.511C321.321 255.047 320.077 253.851 317.707 253.851C316.017 253.851 314.469 254.836 313.671 255.775V254.132H311.911V265.467H313.671V257.183C314.328 256.268 315.642 255.423 317.026 255.423C318.552 255.423 319.561 256.056 319.561 258.051V265.467H321.321Z" fill="#212528"/>
<path d="M334.809 265.467V249.814H333.049V255.845C332.134 254.601 330.749 253.851 329.224 253.851C326.244 253.851 324.179 256.197 324.179 259.811C324.179 263.495 326.267 265.748 329.224 265.748C330.82 265.748 332.204 264.927 333.049 263.777V265.467H334.809ZM329.646 264.176C327.37 264.176 326.009 262.322 326.009 259.811C326.009 257.3 327.37 255.423 329.646 255.423C331.054 255.423 332.415 256.268 333.049 257.253V262.392C332.415 263.378 331.054 264.176 329.646 264.176Z" fill="#212528"/>
<path d="M348.936 270.066C351.705 270.066 354.334 268.893 354.334 265.138V254.132H352.574V255.845C351.658 254.601 350.297 253.851 348.772 253.851C345.792 253.851 343.727 256.103 343.727 259.741C343.727 263.401 345.815 265.607 348.772 265.607C350.368 265.607 351.752 264.739 352.574 263.589V265.208C352.574 267.696 350.814 268.611 348.936 268.611C347.317 268.611 346.191 268.189 345.252 267.062L344.36 268.376C345.698 269.691 347.012 270.066 348.936 270.066ZM349.194 264.059C346.918 264.059 345.557 262.228 345.557 259.741C345.557 257.23 346.918 255.423 349.194 255.423C350.602 255.423 351.963 256.268 352.574 257.253V262.205C351.963 263.19 350.602 264.059 349.194 264.059Z" fill="#212528"/>
<path d="M362.974 265.748C364.828 265.748 366.354 265.138 367.48 264.012L366.635 262.862C365.743 263.777 364.429 264.293 363.139 264.293C360.698 264.293 359.196 262.51 359.055 260.374H368.231V259.928C368.231 256.526 366.213 253.851 362.787 253.851C359.548 253.851 357.202 256.502 357.202 259.788C357.202 263.331 359.619 265.748 362.974 265.748ZM366.494 259.084H359.055C359.149 257.347 360.346 255.305 362.763 255.305C365.345 255.305 366.471 257.394 366.494 259.084Z" fill="#212528"/>
<path d="M373.945 265.748C374.977 265.748 375.611 265.443 376.057 265.021L375.54 263.707C375.306 263.965 374.836 264.176 374.343 264.176C373.569 264.176 373.194 263.566 373.194 262.721V255.681H375.493V254.132H373.194V251.035H371.434V254.132H369.556V255.681H371.434V263.096C371.434 264.786 372.278 265.748 373.945 265.748Z" fill="#212528"/>
<path d="M385.789 262.392V257.253C386.4 256.268 387.784 255.423 389.169 255.423C391.468 255.423 392.829 257.3 392.829 259.811C392.829 262.322 391.468 264.176 389.169 264.176C387.784 264.176 386.4 263.378 385.789 262.392ZM385.789 265.467V263.777C386.634 264.927 388.019 265.748 389.615 265.748C392.571 265.748 394.66 263.495 394.66 259.811C394.66 256.197 392.571 253.851 389.615 253.851C388.066 253.851 386.705 254.601 385.789 255.845V249.814H384.029V265.467H385.789Z" fill="#212528"/>
<path d="M406.374 265.467V257.676C406.374 254.93 404.38 253.851 401.986 253.851C400.132 253.851 398.677 254.461 397.457 255.728L398.278 256.948C399.287 255.869 400.39 255.376 401.751 255.376C403.394 255.376 404.614 256.244 404.614 257.769V259.811C403.699 258.755 402.408 258.262 400.86 258.262C398.935 258.262 396.894 259.459 396.894 261.993C396.894 264.457 398.935 265.748 400.86 265.748C402.385 265.748 403.676 265.208 404.614 264.176V265.467H406.374ZM401.493 264.481C399.851 264.481 398.701 263.448 398.701 262.017C398.701 260.562 399.851 259.529 401.493 259.529C402.737 259.529 403.934 259.999 404.614 260.937V263.073C403.934 264.012 402.737 264.481 401.493 264.481Z" fill="#212528"/>
<path d="M414.901 265.748C416.966 265.748 418.186 264.903 419.054 263.777L417.881 262.697C417.13 263.707 416.168 264.176 414.995 264.176C412.578 264.176 411.076 262.299 411.076 259.788C411.076 257.277 412.578 255.423 414.995 255.423C416.168 255.423 417.13 255.869 417.881 256.901L419.054 255.822C418.186 254.695 416.966 253.851 414.901 253.851C411.522 253.851 409.245 256.432 409.245 259.788C409.245 263.167 411.522 265.748 414.901 265.748Z" fill="#212528"/>
<path d="M431.494 265.467L426.449 259.271L431.471 254.132H429.242L423.281 260.163V249.814H421.521V265.467H423.281V262.228L425.158 260.374L429.242 265.467H431.494Z" fill="#212528"/>
<path d="M442.488 265.748C443.521 265.748 444.154 265.443 444.6 265.021L444.084 263.707C443.849 263.965 443.38 264.176 442.887 264.176C442.113 264.176 441.737 263.566 441.737 262.721V255.681H444.037V254.132H441.737V251.035H439.977V254.132H438.1V255.681H439.977V263.096C439.977 264.786 440.822 265.748 442.488 265.748Z" fill="#212528"/>
<path d="M451.475 265.748C454.924 265.748 457.083 263.073 457.083 259.788C457.083 256.502 454.924 253.851 451.475 253.851C448.025 253.851 445.866 256.502 445.866 259.788C445.866 263.073 448.025 265.748 451.475 265.748ZM451.475 264.176C449.058 264.176 447.697 262.111 447.697 259.788C447.697 257.488 449.058 255.423 451.475 255.423C453.892 255.423 455.229 257.488 455.229 259.788C455.229 262.111 453.892 264.176 451.475 264.176Z" fill="#212528"/>
<path d="M465.369 269.902C465.697 269.996 466.284 270.066 466.659 270.066C468.161 270.043 469.311 269.409 469.992 267.766L475.671 254.132H473.746L469.992 263.425L466.214 254.132H464.313L469.053 265.584L468.302 267.297C467.903 268.236 467.387 268.494 466.613 268.494C466.331 268.494 465.909 268.423 465.65 268.306L465.369 269.902Z" fill="#212528"/>
<path d="M482.458 265.748C485.908 265.748 488.067 263.073 488.067 259.788C488.067 256.502 485.908 253.851 482.458 253.851C479.008 253.851 476.85 256.502 476.85 259.788C476.85 263.073 479.008 265.748 482.458 265.748ZM482.458 264.176C480.041 264.176 478.68 262.111 478.68 259.788C478.68 257.488 480.041 255.423 482.458 255.423C484.875 255.423 486.213 257.488 486.213 259.788C486.213 262.111 484.875 264.176 482.458 264.176Z" fill="#212528"/>
<path d="M500.346 265.467V254.132H498.586V262.463C497.929 263.378 496.615 264.176 495.23 264.176C493.705 264.176 492.696 263.589 492.696 261.595V254.132H490.936V262.134C490.936 264.598 492.179 265.748 494.55 265.748C496.239 265.748 497.718 264.856 498.586 263.871V265.467H500.346Z" fill="#212528"/>
<path d="M521.48 265.467L525.094 254.132H523.263L520.494 263.167L517.514 254.132H516.012L513.032 263.167L510.263 254.132H508.432L512.046 265.467H513.806L516.763 256.361L519.72 265.467H521.48Z" fill="#212528"/>
<path d="M528.012 252.513C528.669 252.513 529.209 251.997 529.209 251.34C529.209 250.683 528.669 250.143 528.012 250.143C527.379 250.143 526.839 250.683 526.839 251.34C526.839 251.997 527.379 252.513 528.012 252.513ZM528.904 265.467V254.132H527.144V265.467H528.904Z" fill="#212528"/>
<path d="M535.278 265.748C536.31 265.748 536.944 265.443 537.39 265.021L536.874 263.707C536.639 263.965 536.17 264.176 535.677 264.176C534.902 264.176 534.527 263.566 534.527 262.721V255.681H536.827V254.132H534.527V251.035H532.767V254.132H530.89V255.681H532.767V263.096C532.767 264.786 533.612 265.748 535.278 265.748Z" fill="#212528"/>
<path d="M548.746 265.467V257.464C548.746 255 547.503 253.851 545.133 253.851C543.419 253.851 541.871 254.836 541.073 255.775V249.814H539.313V265.467H541.073V257.183C541.753 256.268 543.067 255.423 544.429 255.423C545.954 255.423 546.986 256.009 546.986 258.004V265.467H548.746Z" fill="#212528"/>
<path d="M553.129 252.513C553.786 252.513 554.326 251.997 554.326 251.34C554.326 250.683 553.786 250.143 553.129 250.143C552.495 250.143 551.956 250.683 551.956 251.34C551.956 251.997 552.495 252.513 553.129 252.513ZM554.021 265.467V254.132H552.261V265.467H554.021Z" fill="#212528"/>
<path d="M566.942 265.467V257.511C566.942 255.047 565.698 253.851 563.328 253.851C561.638 253.851 560.089 254.836 559.292 255.775V254.132H557.532V265.467H559.292V257.183C559.949 256.268 561.263 255.423 562.647 255.423C564.173 255.423 565.182 256.056 565.182 258.051V265.467H566.942Z" fill="#212528"/>
<path d="M584.884 265.467V261.501H587.09V259.788H584.884V249.814H582.209L575.497 259.881V261.501H582.936V265.467H584.884ZM582.936 259.788H577.445L582.936 251.621V259.788Z" fill="#212528"/>
<path d="M594.168 260.562V259.013H588.536V260.562H594.168Z" fill="#212528"/>
<path d="M601.931 265.748C605.075 265.748 607.492 263.777 607.492 260.585C607.492 257.371 605.122 255.587 602.518 255.587C600.945 255.587 599.608 256.244 598.857 256.995V251.551H606.483V249.814H596.909V258.262L598.34 258.755C599.396 257.723 600.57 257.277 601.954 257.277C604.066 257.277 605.545 258.591 605.545 260.656C605.545 262.557 604.066 264.012 601.931 264.012C600.007 264.012 598.646 263.261 597.613 261.947L596.416 263.237C597.59 264.786 599.279 265.748 601.931 265.748Z" fill="#212528"/>
<path d="M626.492 265.467V249.814H624.732V255.845C623.817 254.601 622.433 253.851 620.907 253.851C617.927 253.851 615.862 256.197 615.862 259.811C615.862 263.495 617.951 265.748 620.907 265.748C622.503 265.748 623.888 264.927 624.732 263.777V265.467H626.492ZM621.33 264.176C619.053 264.176 617.692 262.322 617.692 259.811C617.692 257.3 619.053 255.423 621.33 255.423C622.738 255.423 624.099 256.268 624.732 257.253V262.392C624.099 263.378 622.738 264.176 621.33 264.176Z" fill="#212528"/>
<path d="M638.864 265.467V257.676C638.864 254.93 636.869 253.851 634.476 253.851C632.622 253.851 631.167 254.461 629.947 255.728L630.768 256.948C631.777 255.869 632.88 255.376 634.241 255.376C635.884 255.376 637.104 256.244 637.104 257.769V259.811C636.189 258.755 634.898 258.262 633.349 258.262C631.425 258.262 629.383 259.459 629.383 261.993C629.383 264.457 631.425 265.748 633.349 265.748C634.875 265.748 636.165 265.208 637.104 264.176V265.467H638.864ZM633.983 264.481C632.34 264.481 631.19 263.448 631.19 262.017C631.19 260.562 632.34 259.529 633.983 259.529C635.227 259.529 636.423 259.999 637.104 260.937V263.073C636.423 264.012 635.227 264.481 633.983 264.481Z" fill="#212528"/>
<path d="M641.758 269.902C642.087 269.996 642.674 270.066 643.049 270.066C644.551 270.043 645.701 269.409 646.381 267.766L652.06 254.132H650.136L646.381 263.425L642.603 254.132H640.702L645.443 265.584L644.692 267.297C644.293 268.236 643.776 268.494 643.002 268.494C642.72 268.494 642.298 268.423 642.04 268.306L641.758 269.902Z" fill="#212528"/>
<path d="M657.487 265.748C660.42 265.748 661.945 264.223 661.945 262.322C661.945 257.91 654.929 259.553 654.929 257.065C654.929 256.056 655.891 255.282 657.44 255.282C658.895 255.282 660.138 255.892 660.819 256.713L661.64 255.493C660.725 254.578 659.364 253.851 657.44 253.851C654.741 253.851 653.216 255.352 653.216 257.112C653.216 261.313 660.232 259.623 660.232 262.369C660.232 263.495 659.293 264.317 657.557 264.317C656.008 264.317 654.577 263.566 653.826 262.697L652.911 263.965C654.06 265.185 655.633 265.748 657.487 265.748Z" fill="#212528"/>
<path d="M665.743 265.701C666.447 265.701 667.034 265.115 667.034 264.411C667.034 263.707 666.447 263.12 665.743 263.12C665.039 263.12 664.452 263.707 664.452 264.411C664.452 265.115 665.039 265.701 665.743 265.701Z" fill="#212528"/>
<path d="M86.6973 331.467V329.73H79.4226V315.814H77.4749V331.467H86.6973Z" fill="#212528"/>
<path d="M93.8143 331.748C97.2639 331.748 99.4228 329.073 99.4228 325.788C99.4228 322.502 97.2639 319.851 93.8143 319.851C90.3647 319.851 88.2058 322.502 88.2058 325.788C88.2058 329.073 90.3647 331.748 93.8143 331.748ZM93.8143 330.176C91.3972 330.176 90.0362 328.111 90.0362 325.788C90.0362 323.488 91.3972 321.423 93.8143 321.423C96.2314 321.423 97.569 323.488 97.569 325.788C97.569 328.111 96.2314 330.176 93.8143 330.176Z" fill="#212528"/>
<path d="M107.243 331.748C110.693 331.748 112.852 329.073 112.852 325.788C112.852 322.502 110.693 319.851 107.243 319.851C103.794 319.851 101.635 322.502 101.635 325.788C101.635 329.073 103.794 331.748 107.243 331.748ZM107.243 330.176C104.826 330.176 103.465 328.111 103.465 325.788C103.465 323.488 104.826 321.423 107.243 321.423C109.661 321.423 110.998 323.488 110.998 325.788C110.998 328.111 109.661 330.176 107.243 330.176Z" fill="#212528"/>
<path d="M125.694 331.467L120.649 325.271L125.671 320.132H123.442L117.481 326.163V315.814H115.721V331.467H117.481V328.228L119.358 326.374L123.442 331.467H125.694Z" fill="#212528"/>
<path d="M138.777 331.748C142.226 331.748 144.385 329.073 144.385 325.788C144.385 322.502 142.226 319.851 138.777 319.851C135.327 319.851 133.168 322.502 133.168 325.788C133.168 329.073 135.327 331.748 138.777 331.748ZM138.777 330.176C136.36 330.176 134.999 328.111 134.999 325.788C134.999 323.488 136.36 321.423 138.777 321.423C141.194 321.423 142.531 323.488 142.531 325.788C142.531 328.111 141.194 330.176 138.777 330.176Z" fill="#212528"/>
<path d="M156.665 331.467V320.132H154.905V328.463C154.248 329.378 152.933 330.176 151.549 330.176C150.024 330.176 149.014 329.589 149.014 327.595V320.132H147.254V328.134C147.254 330.598 148.498 331.748 150.868 331.748C152.558 331.748 154.036 330.856 154.905 329.871V331.467H156.665Z" fill="#212528"/>
<path d="M163.042 331.748C164.075 331.748 164.709 331.443 165.154 331.021L164.638 329.707C164.403 329.965 163.934 330.176 163.441 330.176C162.667 330.176 162.291 329.566 162.291 328.721V321.681H164.591V320.132H162.291V317.035H160.531V320.132H158.654V321.681H160.531V329.096C160.531 330.786 161.376 331.748 163.042 331.748Z" fill="#212528"/>
<path d="M175.38 331.467V321.681H177.68V320.132H175.38V319.264C175.38 317.832 176.014 317.035 177.164 317.035C177.75 317.035 178.196 317.269 178.572 317.598L179.299 316.448C178.595 315.791 177.797 315.58 176.906 315.58C174.887 315.58 173.62 316.941 173.62 319.264V320.132H171.743V321.681H173.62V331.467H175.38Z" fill="#212528"/>
<path d="M184.725 331.748C188.174 331.748 190.333 329.073 190.333 325.788C190.333 322.502 188.174 319.851 184.725 319.851C181.275 319.851 179.116 322.502 179.116 325.788C179.116 329.073 181.275 331.748 184.725 331.748ZM184.725 330.176C182.308 330.176 180.947 328.111 180.947 325.788C180.947 323.488 182.308 321.423 184.725 321.423C187.142 321.423 188.479 323.488 188.479 325.788C188.479 328.111 187.142 330.176 184.725 330.176Z" fill="#212528"/>
<path d="M194.962 331.467V323.441C195.479 322.526 196.957 321.634 198.037 321.634C198.318 321.634 198.529 321.657 198.741 321.704V319.897C197.192 319.897 195.878 320.766 194.962 321.963V320.132H193.202V331.467H194.962Z" fill="#212528"/>
<path d="M215.845 331.467V323.676C215.845 320.93 213.851 319.851 211.457 319.851C209.603 319.851 208.148 320.461 206.928 321.728L207.749 322.948C208.758 321.869 209.861 321.376 211.222 321.376C212.865 321.376 214.085 322.244 214.085 323.769V325.811C213.17 324.755 211.879 324.262 210.331 324.262C208.406 324.262 206.365 325.459 206.365 327.993C206.365 330.457 208.406 331.748 210.331 331.748C211.856 331.748 213.147 331.208 214.085 330.176V331.467H215.845ZM210.964 330.481C209.321 330.481 208.172 329.448 208.172 328.017C208.172 326.562 209.321 325.529 210.964 325.529C212.208 325.529 213.405 325.999 214.085 326.937V329.073C213.405 330.012 212.208 330.481 210.964 330.481Z" fill="#212528"/>
<path d="M228.783 331.467V323.511C228.783 321.047 227.54 319.851 225.17 319.851C223.48 319.851 221.931 320.836 221.133 321.775V320.132H219.373V331.467H221.133V323.183C221.79 322.268 223.104 321.423 224.489 321.423C226.014 321.423 227.023 322.056 227.023 324.051V331.467H228.783Z" fill="#212528"/>
<path d="M243.464 331.748C245.318 331.748 246.843 331.138 247.97 330.012L247.125 328.862C246.233 329.777 244.919 330.293 243.628 330.293C241.188 330.293 239.686 328.51 239.545 326.374H248.721V325.928C248.721 322.526 246.702 319.851 243.276 319.851C240.038 319.851 237.691 322.502 237.691 325.788C237.691 329.331 240.108 331.748 243.464 331.748ZM246.984 325.084H239.545C239.639 323.347 240.836 321.305 243.253 321.305C245.834 321.305 246.96 323.394 246.984 325.084Z" fill="#212528"/>
<path d="M267.012 331.467V323.277C267.012 321 265.909 319.851 263.844 319.851C262.202 319.851 260.676 320.93 260.043 321.963C259.714 320.789 258.728 319.851 256.992 319.851C255.326 319.851 253.8 321.047 253.331 321.775V320.132H251.571V331.467H253.331V323.183C253.941 322.268 255.162 321.423 256.311 321.423C257.79 321.423 258.4 322.338 258.4 323.769V331.467H260.16V323.159C260.747 322.268 261.99 321.423 263.164 321.423C264.619 321.423 265.252 322.338 265.252 323.769V331.467H267.012Z" fill="#212528"/>
<path d="M279.37 331.467V323.676C279.37 320.93 277.376 319.851 274.982 319.851C273.128 319.851 271.673 320.461 270.453 321.728L271.274 322.948C272.283 321.869 273.386 321.376 274.747 321.376C276.39 321.376 277.61 322.244 277.61 323.769V325.811C276.695 324.755 275.404 324.262 273.855 324.262C271.931 324.262 269.89 325.459 269.89 327.993C269.89 330.457 271.931 331.748 273.855 331.748C275.381 331.748 276.671 331.208 277.61 330.176V331.467H279.37ZM274.489 330.481C272.846 330.481 271.697 329.448 271.697 328.017C271.697 326.562 272.846 325.529 274.489 325.529C275.733 325.529 276.93 325.999 277.61 326.937V329.073C276.93 330.012 275.733 330.481 274.489 330.481Z" fill="#212528"/>
<path d="M283.767 318.513C284.424 318.513 284.963 317.997 284.963 317.34C284.963 316.683 284.424 316.143 283.767 316.143C283.133 316.143 282.593 316.683 282.593 317.34C282.593 317.997 283.133 318.513 283.767 318.513ZM284.658 331.467V320.132H282.898V331.467H284.658Z" fill="#212528"/>
<path d="M289.929 331.467V315.814H288.169V331.467H289.929Z" fill="#212528"/>
<path d="M301.743 331.467V321.681H304.042V320.132H301.743V319.264C301.743 317.832 302.376 317.035 303.526 317.035C304.113 317.035 304.559 317.269 304.934 317.598L305.662 316.448C304.958 315.791 304.16 315.58 303.268 315.58C301.25 315.58 299.983 316.941 299.983 319.264V320.132H298.105V321.681H299.983V331.467H301.743Z" fill="#212528"/>
<path d="M307.896 331.467V323.441C308.412 322.526 309.89 321.634 310.97 321.634C311.251 321.634 311.463 321.657 311.674 321.704V319.897C310.125 319.897 308.811 320.766 307.896 321.963V320.132H306.136V331.467H307.896Z" fill="#212528"/>
<path d="M318.833 331.748C322.283 331.748 324.442 329.073 324.442 325.788C324.442 322.502 322.283 319.851 318.833 319.851C315.383 319.851 313.224 322.502 313.224 325.788C313.224 329.073 315.383 331.748 318.833 331.748ZM318.833 330.176C316.416 330.176 315.055 328.111 315.055 325.788C315.055 323.488 316.416 321.423 318.833 321.423C321.25 321.423 322.588 323.488 322.588 325.788C322.588 328.111 321.25 330.176 318.833 330.176Z" fill="#212528"/>
<path d="M342.752 331.467V323.277C342.752 321 341.649 319.851 339.584 319.851C337.941 319.851 336.416 320.93 335.782 321.963C335.454 320.789 334.468 319.851 332.732 319.851C331.065 319.851 329.54 321.047 329.071 321.775V320.132H327.311V331.467H329.071V323.183C329.681 322.268 330.901 321.423 332.051 321.423C333.529 321.423 334.14 322.338 334.14 323.769V331.467H335.9V323.159C336.486 322.268 337.73 321.423 338.903 321.423C340.358 321.423 340.992 322.338 340.992 323.769V331.467H342.752Z" fill="#212528"/>
<path d="M361.723 331.467V320.132H359.963V328.463C359.306 329.378 357.992 330.176 356.607 330.176C355.082 330.176 354.073 329.589 354.073 327.595V320.132H352.313V328.134C352.313 330.598 353.557 331.748 355.927 331.748C357.616 331.748 359.095 330.856 359.963 329.871V331.467H361.723Z" fill="#212528"/>
<path d="M368.828 331.748C371.762 331.748 373.287 330.223 373.287 328.322C373.287 323.91 366.27 325.553 366.27 323.065C366.27 322.056 367.232 321.282 368.781 321.282C370.236 321.282 371.48 321.892 372.16 322.713L372.982 321.493C372.067 320.578 370.706 319.851 368.781 319.851C366.083 319.851 364.557 321.352 364.557 323.112C364.557 327.313 371.574 325.623 371.574 328.369C371.574 329.495 370.635 330.317 368.899 330.317C367.35 330.317 365.918 329.566 365.167 328.697L364.252 329.965C365.402 331.185 366.974 331.748 368.828 331.748Z" fill="#212528"/>
<path d="M385.787 331.748C388.72 331.748 390.245 330.223 390.245 328.322C390.245 323.91 383.229 325.553 383.229 323.065C383.229 322.056 384.191 321.282 385.74 321.282C387.195 321.282 388.438 321.892 389.119 322.713L389.94 321.493C389.025 320.578 387.664 319.851 385.74 319.851C383.041 319.851 381.516 321.352 381.516 323.112C381.516 327.313 388.532 325.623 388.532 328.369C388.532 329.495 387.593 330.317 385.857 330.317C384.308 330.317 382.877 329.566 382.126 328.697L381.211 329.965C382.36 331.185 383.933 331.748 385.787 331.748Z" fill="#212528"/>
<path d="M398.056 331.748C401.506 331.748 403.664 329.073 403.664 325.788C403.664 322.502 401.506 319.851 398.056 319.851C394.606 319.851 392.447 322.502 392.447 325.788C392.447 329.073 394.606 331.748 398.056 331.748ZM398.056 330.176C395.639 330.176 394.278 328.111 394.278 325.788C394.278 323.488 395.639 321.423 398.056 321.423C400.473 321.423 401.811 323.488 401.811 325.788C401.811 328.111 400.473 330.176 398.056 330.176Z" fill="#212528"/>
<path d="M411.485 331.748C414.935 331.748 417.094 329.073 417.094 325.788C417.094 322.502 414.935 319.851 411.485 319.851C408.036 319.851 405.877 322.502 405.877 325.788C405.877 329.073 408.036 331.748 411.485 331.748ZM411.485 330.176C409.068 330.176 407.707 328.111 407.707 325.788C407.707 323.488 409.068 321.423 411.485 321.423C413.902 321.423 415.24 323.488 415.24 325.788C415.24 328.111 413.902 330.176 411.485 330.176Z" fill="#212528"/>
<path d="M429.373 331.467V323.511C429.373 321.047 428.129 319.851 425.759 319.851C424.069 319.851 422.521 320.836 421.723 321.775V320.132H419.963V331.467H421.723V323.183C422.38 322.268 423.694 321.423 425.079 321.423C426.604 321.423 427.613 322.056 427.613 324.051V331.467H429.373Z" fill="#212528"/>
<path d="M443.889 331.748C447.339 331.748 449.498 329.073 449.498 325.788C449.498 322.502 447.339 319.851 443.889 319.851C440.44 319.851 438.281 322.502 438.281 325.788C438.281 329.073 440.44 331.748 443.889 331.748ZM443.889 330.176C441.472 330.176 440.111 328.111 440.111 325.788C440.111 323.488 441.472 321.423 443.889 321.423C446.306 321.423 447.644 323.488 447.644 325.788C447.644 328.111 446.306 330.176 443.889 330.176Z" fill="#212528"/>
<path d="M454.127 331.467V323.441C454.643 322.526 456.122 321.634 457.201 321.634C457.483 321.634 457.694 321.657 457.905 321.704V319.897C456.356 319.897 455.042 320.766 454.127 321.963V320.132H452.367V331.467H454.127Z" fill="#212528"/>
<path d="M465.529 335.902C465.858 335.996 466.444 336.066 466.82 336.066C468.322 336.043 469.472 335.409 470.152 333.766L475.831 320.132H473.907L470.152 329.425L466.374 320.132H464.473L469.213 331.584L468.463 333.297C468.064 334.236 467.547 334.494 466.773 334.494C466.491 334.494 466.069 334.423 465.811 334.306L465.529 335.902Z" fill="#212528"/>
<path d="M482.618 331.748C486.068 331.748 488.227 329.073 488.227 325.788C488.227 322.502 486.068 319.851 482.618 319.851C479.169 319.851 477.01 322.502 477.01 325.788C477.01 329.073 479.169 331.748 482.618 331.748ZM482.618 330.176C480.201 330.176 478.84 328.111 478.84 325.788C478.84 323.488 480.201 321.423 482.618 321.423C485.035 321.423 486.373 323.488 486.373 325.788C486.373 328.111 485.035 330.176 482.618 330.176Z" fill="#212528"/>
<path d="M500.506 331.467V320.132H498.746V328.463C498.089 329.378 496.775 330.176 495.391 330.176C493.865 330.176 492.856 329.589 492.856 327.595V320.132H491.096V328.134C491.096 330.598 492.34 331.748 494.71 331.748C496.4 331.748 497.878 330.856 498.746 329.871V331.467H500.506Z" fill="#212528"/>
<path d="M515.07 331.748C517.135 331.748 518.355 330.903 519.223 329.777L518.05 328.697C517.299 329.707 516.337 330.176 515.163 330.176C512.746 330.176 511.244 328.299 511.244 325.788C511.244 323.277 512.746 321.423 515.163 321.423C516.337 321.423 517.299 321.869 518.05 322.901L519.223 321.822C518.355 320.695 517.135 319.851 515.07 319.851C511.69 319.851 509.414 322.432 509.414 325.788C509.414 329.167 511.69 331.748 515.07 331.748Z" fill="#212528"/>
<path d="M530.537 331.467V323.676C530.537 320.93 528.542 319.851 526.149 319.851C524.295 319.851 522.84 320.461 521.619 321.728L522.441 322.948C523.45 321.869 524.553 321.376 525.914 321.376C527.557 321.376 528.777 322.244 528.777 323.769V325.811C527.862 324.755 526.571 324.262 525.022 324.262C523.098 324.262 521.056 325.459 521.056 327.993C521.056 330.457 523.098 331.748 525.022 331.748C526.548 331.748 527.838 331.208 528.777 330.176V331.467H530.537ZM525.656 330.481C524.013 330.481 522.863 329.448 522.863 328.017C522.863 326.562 524.013 325.529 525.656 325.529C526.899 325.529 528.096 325.999 528.777 326.937V329.073C528.096 330.012 526.899 330.481 525.656 330.481Z" fill="#212528"/>
<path d="M543.475 331.467V323.511C543.475 321.047 542.231 319.851 539.861 319.851C538.172 319.851 536.623 320.836 535.825 321.775V320.132H534.065V331.467H535.825V323.183C536.482 322.268 537.796 321.423 539.181 321.423C540.706 321.423 541.715 322.056 541.715 324.051V331.467H543.475Z" fill="#212528"/>
<path d="M564.609 331.467L568.223 320.132H566.392L563.623 329.167L560.643 320.132H559.141L556.161 329.167L553.392 320.132H551.562L555.175 331.467H556.935L559.892 322.361L562.849 331.467H564.609Z" fill="#212528"/>
<path d="M572.033 331.467V323.441C572.549 322.526 574.028 321.634 575.107 321.634C575.389 321.634 575.6 321.657 575.811 321.704V319.897C574.263 319.897 572.948 320.766 572.033 321.963V320.132H570.273V331.467H572.033Z" fill="#212528"/>
<path d="M578.887 318.513C579.544 318.513 580.084 317.997 580.084 317.34C580.084 316.683 579.544 316.143 578.887 316.143C578.254 316.143 577.714 316.683 577.714 317.34C577.714 317.997 578.254 318.513 578.887 318.513ZM579.779 331.467V320.132H578.019V331.467H579.779Z" fill="#212528"/>
<path d="M586.153 331.748C587.185 331.748 587.819 331.443 588.265 331.021L587.749 329.707C587.514 329.965 587.045 330.176 586.552 330.176C585.777 330.176 585.402 329.566 585.402 328.721V321.681H587.702V320.132H585.402V317.035H583.642V320.132H581.765V321.681H583.642V329.096C583.642 330.786 584.487 331.748 586.153 331.748Z" fill="#212528"/>
<path d="M595.304 331.748C597.157 331.748 598.683 331.138 599.809 330.012L598.964 328.862C598.073 329.777 596.758 330.293 595.468 330.293C593.027 330.293 591.525 328.51 591.385 326.374H600.56V325.928C600.56 322.526 598.542 319.851 595.116 319.851C591.877 319.851 589.531 322.502 589.531 325.788C589.531 329.331 591.948 331.748 595.304 331.748ZM598.824 325.084H591.385C591.478 323.347 592.675 321.305 595.092 321.305C597.674 321.305 598.8 323.394 598.824 325.084Z" fill="#212528"/>
<path d="M618.871 331.467V320.132H617.111V328.463C616.454 329.378 615.14 330.176 613.755 330.176C612.23 330.176 611.221 329.589 611.221 327.595V320.132H609.461V328.134C609.461 330.598 610.704 331.748 613.075 331.748C614.764 331.748 616.243 330.856 617.111 329.871V331.467H618.871Z" fill="#212528"/>
<path d="M625.976 331.748C628.909 331.748 630.435 330.223 630.435 328.322C630.435 323.91 623.418 325.553 623.418 323.065C623.418 322.056 624.38 321.282 625.929 321.282C627.384 321.282 628.628 321.892 629.308 322.713L630.13 321.493C629.215 320.578 627.853 319.851 625.929 319.851C623.231 319.851 621.705 321.352 621.705 323.112C621.705 327.313 628.722 325.623 628.722 328.369C628.722 329.495 627.783 330.317 626.047 330.317C624.498 330.317 623.066 329.566 622.315 328.697L621.4 329.965C622.55 331.185 624.122 331.748 625.976 331.748Z" fill="#212528"/>
<path d="M648.191 331.467V323.676C648.191 320.93 646.196 319.851 643.803 319.851C641.949 319.851 640.494 320.461 639.274 321.728L640.095 322.948C641.104 321.869 642.207 321.376 643.568 321.376C645.211 321.376 646.431 322.244 646.431 323.769V325.811C645.516 324.755 644.225 324.262 642.676 324.262C640.752 324.262 638.71 325.459 638.71 327.993C638.71 330.457 640.752 331.748 642.676 331.748C644.202 331.748 645.492 331.208 646.431 330.176V331.467H648.191ZM643.31 330.481C641.667 330.481 640.517 329.448 640.517 328.017C640.517 326.562 641.667 325.529 643.31 325.529C644.554 325.529 645.75 325.999 646.431 326.937V329.073C645.75 330.012 644.554 330.481 643.31 330.481Z" fill="#212528"/>
<path d="M654.582 331.748C655.615 331.748 656.248 331.443 656.694 331.021L656.178 329.707C655.943 329.965 655.474 330.176 654.981 330.176C654.207 330.176 653.831 329.566 653.831 328.721V321.681H656.131V320.132H653.831V317.035H652.071V320.132H650.194V321.681H652.071V329.096C652.071 330.786 652.916 331.748 654.582 331.748Z" fill="#212528"/>
<path d="M265.829 361.081C268.763 361.081 270.288 359.556 270.288 357.655C270.288 353.244 263.271 354.886 263.271 352.399C263.271 351.39 264.234 350.615 265.782 350.615C267.237 350.615 268.481 351.225 269.162 352.047L269.983 350.827C269.068 349.911 267.707 349.184 265.782 349.184C263.084 349.184 261.558 350.686 261.558 352.446C261.558 356.646 268.575 354.957 268.575 357.702C268.575 358.829 267.636 359.65 265.9 359.65C264.351 359.65 262.919 358.899 262.168 358.031L261.253 359.298C262.403 360.518 263.975 361.081 265.829 361.081Z" fill="#1C73E8"/>
<path d="M282.557 360.8V349.465H280.797V357.796C280.14 358.711 278.826 359.509 277.442 359.509C275.916 359.509 274.907 358.923 274.907 356.928V349.465H273.147V357.468C273.147 359.932 274.391 361.081 276.761 361.081C278.451 361.081 279.929 360.19 280.797 359.204V360.8H282.557Z" fill="#1C73E8"/>
<path d="M291.657 361.081C294.638 361.081 296.703 358.782 296.703 355.121C296.703 351.437 294.638 349.184 291.657 349.184C290.062 349.184 288.654 350.005 287.832 351.155V349.465H286.072V365.118H287.832V359.087C288.747 360.354 290.108 361.081 291.657 361.081ZM291.211 359.509C289.827 359.509 288.442 358.664 287.832 357.679V352.563C288.442 351.577 289.827 350.756 291.211 350.756C293.488 350.756 294.849 352.61 294.849 355.121C294.849 357.632 293.488 359.509 291.211 359.509Z" fill="#1C73E8"/>
<path d="M305.086 361.081C308.067 361.081 310.132 358.782 310.132 355.121C310.132 351.437 308.067 349.184 305.086 349.184C303.491 349.184 302.083 350.005 301.261 351.155V349.465H299.501V365.118H301.261V359.087C302.177 360.354 303.538 361.081 305.086 361.081ZM304.641 359.509C303.256 359.509 301.872 358.664 301.261 357.679V352.563C301.872 351.577 303.256 350.756 304.641 350.756C306.917 350.756 308.278 352.61 308.278 355.121C308.278 357.632 306.917 359.509 304.641 359.509Z" fill="#1C73E8"/>
<path d="M317.882 361.081C321.332 361.081 323.491 358.406 323.491 355.121C323.491 351.836 321.332 349.184 317.882 349.184C314.432 349.184 312.273 351.836 312.273 355.121C312.273 358.406 314.432 361.081 317.882 361.081ZM317.882 359.509C315.465 359.509 314.104 357.444 314.104 355.121C314.104 352.821 315.465 350.756 317.882 350.756C320.299 350.756 321.637 352.821 321.637 355.121C321.637 357.444 320.299 359.509 317.882 359.509Z" fill="#1C73E8"/>
<path d="M328.12 360.8V352.774C328.636 351.859 330.114 350.967 331.194 350.967C331.475 350.967 331.687 350.991 331.898 351.038V349.231C330.349 349.231 329.035 350.099 328.12 351.296V349.465H326.36V360.8H328.12Z" fill="#1C73E8"/>
<path d="M336.968 361.081C338.001 361.081 338.635 360.776 339.08 360.354L338.564 359.04C338.33 359.298 337.86 359.509 337.367 359.509C336.593 359.509 336.218 358.899 336.218 358.054V351.014H338.517V349.465H336.218V346.368H334.458V349.465H332.58V351.014H334.458V358.43C334.458 360.119 335.302 361.081 336.968 361.081Z" fill="#1C73E8"/>
<path d="M347.504 362.443C349.24 362.443 350.93 361.903 352.385 360.964L351.962 360.354C350.695 361.152 349.264 361.668 347.598 361.668C343.702 361.668 340.863 358.805 340.863 355.027C340.863 350.639 344.758 346.626 349.287 346.626C353.277 346.626 355.928 349.419 355.928 353.267C355.928 356.505 354.309 357.538 353.394 357.538C352.784 357.538 352.291 357.116 352.291 356.318C352.291 356.177 352.314 355.966 352.338 355.825L353.675 349.465H352.08L351.775 350.92C351.329 349.911 350.296 349.09 348.771 349.09C346.002 349.09 343.256 351.718 343.256 354.98C343.256 357.256 344.664 358.805 346.847 358.805C348.349 358.805 349.733 357.913 350.554 356.764L350.578 356.904C350.648 357.89 351.399 358.805 352.713 358.805C354.685 358.805 356.773 356.951 356.773 353.267C356.773 349.16 353.816 345.828 349.381 345.828C344.5 345.828 340.065 350.005 340.065 355.074C340.065 359.228 343.233 362.443 347.504 362.443ZM347.316 357.491C345.814 357.491 344.922 356.388 344.922 354.886C344.922 352.633 346.729 350.404 349.076 350.404C350.461 350.404 351.235 351.413 351.493 352.141L350.813 355.379C350.132 356.365 348.935 357.491 347.316 357.491Z" fill="#1C73E8"/>
<path d="M374.824 360.8V352.61C374.824 350.334 373.721 349.184 371.656 349.184C370.013 349.184 368.488 350.263 367.854 351.296C367.526 350.123 366.54 349.184 364.803 349.184C363.137 349.184 361.612 350.381 361.143 351.108V349.465H359.383V360.8H361.143V352.516C361.753 351.601 362.973 350.756 364.123 350.756C365.601 350.756 366.211 351.671 366.211 353.103V360.8H367.971V352.493C368.558 351.601 369.802 350.756 370.975 350.756C372.43 350.756 373.064 351.671 373.064 353.103V360.8H374.824Z" fill="#1C73E8"/>
<path d="M381.925 361.081C384.858 361.081 386.384 359.556 386.384 357.655C386.384 353.244 379.367 354.886 379.367 352.399C379.367 351.39 380.329 350.615 381.878 350.615C383.333 350.615 384.577 351.225 385.257 352.047L386.079 350.827C385.163 349.911 383.802 349.184 381.878 349.184C379.179 349.184 377.654 350.686 377.654 352.446C377.654 356.646 384.671 354.957 384.671 357.702C384.671 358.829 383.732 359.65 381.995 359.65C380.447 359.65 379.015 358.899 378.264 358.031L377.349 359.298C378.499 360.518 380.071 361.081 381.925 361.081Z" fill="#1C73E8"/>
<path d="M393.796 365.399C396.565 365.399 399.193 364.226 399.193 360.471V349.465H397.433V351.179C396.518 349.935 395.157 349.184 393.631 349.184C390.651 349.184 388.586 351.437 388.586 355.074C388.586 358.735 390.674 360.941 393.631 360.941C395.227 360.941 396.612 360.072 397.433 358.923V360.542C397.433 363.029 395.673 363.944 393.796 363.944C392.176 363.944 391.05 363.522 390.111 362.396L389.22 363.71C390.557 365.024 391.871 365.399 393.796 365.399ZM394.054 359.392C391.777 359.392 390.416 357.561 390.416 355.074C390.416 352.563 391.777 350.756 394.054 350.756C395.462 350.756 396.823 351.601 397.433 352.587V357.538C396.823 358.524 395.462 359.392 394.054 359.392Z" fill="#1C73E8"/>
<path d="M407.271 361.058C411.659 361.058 413.63 357.209 413.63 352.985C413.63 348.715 411.964 344.889 407.576 344.889C404.173 344.889 402.108 347.307 402.108 350.005C402.108 353.337 404.431 355.004 407.247 355.004C409.242 355.004 410.978 353.643 411.659 352.563C411.682 352.774 411.682 352.985 411.682 353.197C411.682 356.153 410.439 359.321 407.271 359.321C405.651 359.321 404.713 358.664 403.915 357.726L402.929 359.181C403.915 360.307 405.276 361.058 407.271 361.058ZM407.693 353.314C405.675 353.314 404.079 352.235 404.079 349.935C404.079 348.456 405.276 346.626 407.669 346.626C410.392 346.626 411.424 349.043 411.588 350.991C410.767 352.375 409.242 353.314 407.693 353.314Z" fill="#1C73E8"/>
<path d="M420.947 360.8V345.148H419.234L415.315 349.184L416.489 350.381L419 347.729V360.8H420.947Z" fill="#1C73E8"/>
<path d="M425.473 361.035C426.177 361.035 426.764 360.448 426.764 359.744C426.764 359.04 426.177 358.453 425.473 358.453C424.769 358.453 424.183 359.04 424.183 359.744C424.183 360.448 424.769 361.035 425.473 361.035Z" fill="#1C73E8"/>
<path d="M434.781 361.081C436.846 361.081 438.066 360.237 438.935 359.11L437.761 358.031C437.01 359.04 436.048 359.509 434.875 359.509C432.458 359.509 430.956 357.632 430.956 355.121C430.956 352.61 432.458 350.756 434.875 350.756C436.048 350.756 437.01 351.202 437.761 352.235L438.935 351.155C438.066 350.029 436.846 349.184 434.781 349.184C431.402 349.184 429.126 351.765 429.126 355.121C429.126 358.5 431.402 361.081 434.781 361.081Z" fill="#1C73E8"/>
<path d="M446.353 361.081C449.802 361.081 451.961 358.406 451.961 355.121C451.961 351.836 449.802 349.184 446.353 349.184C442.903 349.184 440.744 351.836 440.744 355.121C440.744 358.406 442.903 361.081 446.353 361.081ZM446.353 359.509C443.936 359.509 442.575 357.444 442.575 355.121C442.575 352.821 443.936 350.756 446.353 350.756C448.77 350.756 450.108 352.821 450.108 355.121C450.108 357.444 448.77 359.509 446.353 359.509Z" fill="#1C73E8"/>
<path d="M470.272 360.8V352.61C470.272 350.334 469.169 349.184 467.104 349.184C465.461 349.184 463.936 350.263 463.302 351.296C462.973 350.123 461.988 349.184 460.251 349.184C458.585 349.184 457.06 350.381 456.591 351.108V349.465H454.831V360.8H456.591V352.516C457.201 351.601 458.421 350.756 459.571 350.756C461.049 350.756 461.659 351.671 461.659 353.103V360.8H463.419V352.493C464.006 351.601 465.25 350.756 466.423 350.756C467.878 350.756 468.512 351.671 468.512 353.103V360.8H470.272Z" fill="#1C73E8"/>
</svg>
